{"glyphs":{"0":{"ha":736,"x_min":0,"x_max":0,"o":"m 64 450 b 165 63 64 276 81 153 b 368 -18 214 14 272 -18 b 571 63 464 -18 522 14 b 672 450 656 153 672 276 b 571 838 672 624 656 747 b 369 918 522 886 465 918 b 165 838 272 918 214 886 b 64 450 81 747 64 624 z m 215 450 b 268 756 215 611 229 704 b 368 804 290 789 325 804 b 468 756 413 804 446 789 b 521 450 507 704 521 611 b 468 144 521 289 507 196 b 368 96 446 111 413 96 b 268 144 325 96 290 111 b 215 450 229 196 215 289 z "},"1":{"ha":736,"x_min":0,"x_max":0,"o":"m 82 633 b 143 547 89 597 113 564 b 343 697 213 578 290 632 b 336 529 340 639 336 564 l 336 213 b 338 119 336 179 338 151 b 258 121 318 119 276 121 l 131 121 b 125 60 126 101 125 81 b 131 0 125 40 126 21 l 654 0 b 660 60 658 19 660 40 b 654 121 660 81 658 101 l 558 121 b 476 119 540 121 497 119 b 478 213 476 151 478 179 l 478 900 b 410 907 453 906 431 907 b 342 900 390 907 365 906 b 82 633 304 815 217 717 z "},"2":{"ha":736,"x_min":0,"x_max":0,"o":"m 660 126 l 404 126 b 221 115 360 126 289 122 b 357 276 231 154 286 215 l 464 368 b 638 658 556 444 638 522 b 367 918 638 811 533 918 b 85 715 225 918 124 824 b 189 667 104 685 153 668 b 354 799 218 740 276 799 b 489 661 433 799 489 744 b 385 474 489 585 449 531 l 249 354 b 75 90 158 276 75 179 b 132 0 75 60 111 18 l 564 0 b 657 71 619 0 649 24 b 660 126 658 89 660 108 z "},"3":{"ha":736,"x_min":0,"x_max":0,"o":"m 597 744 b 626 808 618 768 626 788 b 596 900 626 839 610 874 l 111 900 b 99 829 101 875 99 850 b 107 775 99 815 100 796 l 303 775 b 464 789 351 775 431 781 l 468 782 b 374 692 444 763 394 713 l 200 503 b 258 425 210 471 232 438 b 353 449 286 440 322 449 b 510 288 449 449 510 389 b 325 100 510 164 429 100 b 131 169 249 100 185 129 b 67 74 101 147 75 107 b 344 -18 129 21 225 -18 b 660 282 500 -18 660 81 b 401 546 660 457 542 542 b 451 589 419 560 436 574 z "},"4":{"ha":736,"x_min":0,"x_max":0,"o":"m 406 0 b 475 -6 428 -4 451 -6 b 546 0 499 -6 522 -4 l 546 118 b 544 193 546 142 544 169 b 608 192 567 193 585 192 l 676 192 b 686 258 683 214 686 240 b 682 314 686 275 685 294 l 608 314 b 544 313 585 314 567 313 b 546 386 544 335 546 363 l 546 569 l 539 576 l 500 576 b 406 465 442 576 406 535 l 406 357 b 407 313 406 347 406 328 l 356 313 b 197 306 326 313 250 310 l 193 311 b 290 513 224 361 265 454 l 450 882 b 315 908 424 906 356 918 l 81 365 b 53 278 67 331 53 300 b 86 190 53 251 68 219 l 332 190 b 407 193 356 190 385 193 b 406 118 407 169 406 142 z "},"5":{"ha":736,"x_min":0,"x_max":0,"o":"m 610 900 l 139 900 l 129 890 l 110 472 b 179 424 122 451 153 428 b 336 483 226 463 282 483 b 507 301 417 483 507 442 b 329 100 507 163 422 100 b 139 167 254 100 194 128 b 78 71 110 146 83 100 b 339 -18 138 19 229 -18 b 657 310 497 -18 657 85 b 375 599 657 489 544 599 b 253 574 331 599 290 589 l 257 610 l 263 707 l 263 776 l 315 776 l 556 776 b 619 840 597 776 619 799 b 610 900 619 856 617 879 z "},"6":{"ha":736,"x_min":0,"x_max":0,"o":"m 378 -18 b 674 300 550 -18 674 110 b 421 601 674 506 572 601 b 221 522 343 601 272 569 b 436 803 226 681 288 803 b 576 772 496 803 542 788 b 628 874 607 793 625 838 b 428 918 579 901 507 918 b 69 454 193 918 69 738 b 167 71 69 179 142 103 b 378 -18 193 40 256 -18 z m 385 481 b 526 290 467 481 526 433 b 379 93 526 172 476 93 b 276 144 333 93 300 115 b 221 381 233 200 221 304 l 221 403 b 385 481 267 451 328 481 z "},"7":{"ha":736,"x_min":0,"x_max":0,"o":"m 96 900 b 83 826 88 878 83 851 b 90 775 83 810 86 790 l 318 775 b 529 788 354 775 492 779 l 535 782 b 457 685 517 763 479 719 l 442 663 b 215 57 329 500 240 300 l 210 0 b 285 -7 232 -4 260 -7 b 360 0 313 -7 340 -4 l 364 50 b 603 682 390 311 471 488 l 650 750 b 672 810 665 771 672 792 b 646 900 672 835 660 872 z "},"8":{"ha":736,"x_min":0,"x_max":0,"o":"m 61 226 b 361 -18 61 71 182 -18 b 674 238 532 -18 674 78 b 514 483 675 353 610 432 b 649 686 589 524 649 594 b 367 918 649 822 533 918 b 85 681 208 918 85 818 b 224 468 85 582 139 514 b 61 226 135 421 61 335 z m 329 424 l 353 415 b 525 239 444 388 525 333 b 367 86 525 146 456 86 b 208 238 278 86 208 140 b 326 424 208 308 247 379 z m 229 682 b 367 811 229 760 290 811 b 506 681 444 811 506 761 b 407 525 506 617 469 561 l 390 532 b 229 682 292 558 229 604 z "},"9":{"ha":736,"x_min":0,"x_max":0,"o":"m 358 918 b 63 600 186 918 63 790 b 315 299 63 394 164 299 b 515 376 393 299 464 331 b 300 97 510 218 449 97 b 160 128 240 97 194 113 b 108 26 129 107 111 63 b 308 -18 157 -1 229 -18 b 667 446 543 -18 667 163 b 569 829 667 721 594 797 b 358 918 543 860 481 918 z m 351 419 b 210 610 269 419 210 467 b 357 807 210 728 260 807 b 460 756 403 807 436 785 b 515 519 503 700 515 596 l 515 496 b 351 419 468 449 407 419 z "},"\u0000":{"ha":0,"x_min":0,"x_max":0,"o":""},"\r":{"ha":258,"x_min":0,"x_max":0,"o":""}," ":{"ha":306,"x_min":0,"x_max":0,"o":""},"a":{"ha":704,"x_min":0,"x_max":0,"o":"m 640 64 b 601 183 608 92 601 131 l 601 468 b 374 700 601 626 511 700 b 86 636 281 700 164 671 b 128 532 88 600 104 554 b 346 585 200 560 276 585 b 460 461 418 585 460 549 l 460 407 b 326 417 414 414 364 417 b 60 186 175 417 60 344 b 265 -18 60 88 126 -18 b 475 76 354 -18 425 28 b 586 -10 493 33 529 1 b 640 64 610 4 632 38 z m 296 96 b 203 197 236 96 203 140 b 335 317 203 272 251 317 b 460 311 374 317 418 315 l 460 179 b 296 96 410 124 349 96 z "},"b":{"ha":733,"x_min":0,"x_max":0,"o":"m 672 351 b 432 697 672 554 592 697 b 249 626 354 697 293 664 l 249 929 b 171 1021 249 993 231 1021 l 117 1021 l 108 1013 l 108 35 b 361 -11 186 6 272 -11 b 672 351 532 -11 674 108 z m 400 578 b 526 350 471 578 526 511 b 363 96 526 181 458 96 b 249 113 319 96 283 101 l 249 499 b 400 578 289 546 346 578 z "},"c":{"ha":654,"x_min":0,"x_max":0,"o":"m 471 421 b 531 415 490 417 507 415 b 603 494 582 415 603 446 b 351 704 603 590 521 704 b 61 339 206 704 61 596 b 344 -18 61 147 146 -18 b 596 85 444 -18 533 22 b 535 169 589 115 561 154 b 367 100 488 133 431 100 b 210 339 267 100 210 172 b 349 593 210 508 261 593 b 471 421 450 593 474 511 z "},"d":{"ha":736,"x_min":0,"x_max":0,"o":"m 61 335 b 300 -18 61 126 142 -18 b 501 76 383 -18 454 22 b 611 -10 521 32 556 0 b 664 64 633 4 657 38 b 625 196 635 90 625 142 l 625 929 b 549 1021 625 993 608 1021 l 494 1021 l 485 1013 l 485 651 b 328 697 438 678 385 697 b 61 335 194 697 61 582 z m 333 101 b 207 333 267 101 207 168 b 347 583 207 503 269 583 b 485 533 394 583 442 561 l 485 189 b 333 101 442 128 382 101 z "},"e":{"ha":694,"x_min":0,"x_max":0,"o":"m 617 297 b 626 407 624 336 626 363 b 351 704 626 572 531 704 b 61 342 158 704 61 549 b 347 -18 61 154 128 -18 b 608 60 444 -18 542 13 b 563 151 603 89 586 129 b 369 99 504 121 439 99 b 208 297 251 99 214 182 z m 350 597 b 489 419 450 597 489 517 l 489 401 l 208 401 b 350 597 215 524 261 597 z "},"f":{"ha":463,"x_min":0,"x_max":0,"o":"m 140 0 b 210 -6 161 -4 188 -6 b 281 0 233 -6 258 -4 l 281 583 l 467 581 b 472 635 471 599 472 617 b 467 688 472 653 471 669 l 271 685 b 261 801 265 725 261 765 b 364 918 261 876 300 918 b 483 897 403 918 447 908 b 517 994 504 919 517 961 b 339 1026 474 1011 401 1026 b 125 810 203 1026 125 933 b 133 686 125 771 129 729 l 21 688 b 15 635 17 669 15 653 b 21 581 15 617 17 599 l 140 583 z "},"g":{"ha":733,"x_min":0,"x_max":0,"o":"m 61 342 b 303 -12 61 131 142 -12 b 488 63 376 -12 442 21 l 488 -1 b 317 -194 488 -108 458 -194 b 128 -151 263 -194 186 -179 b 90 -260 107 -176 92 -224 b 331 -306 154 -285 246 -306 b 561 -214 436 -306 517 -269 b 626 79 604 -160 626 -81 l 626 490 b 665 622 626 544 636 594 b 613 696 660 647 635 682 b 517 632 567 686 536 664 b 326 704 472 672 413 704 b 61 342 196 704 61 588 z m 488 513 l 488 189 b 332 107 446 139 389 107 b 207 340 264 107 207 175 b 349 589 207 510 268 589 b 488 526 394 589 444 565 z "},"h":{"ha":756,"x_min":0,"x_max":0,"o":"m 653 469 b 468 697 653 597 599 697 b 249 606 386 697 307 658 l 249 929 b 172 1021 249 993 232 1021 l 117 1021 l 108 1013 l 108 0 b 178 -6 129 -4 153 -6 b 249 0 204 -6 229 -4 l 249 482 b 422 568 297 535 368 568 b 510 435 490 568 510 528 l 510 82 b 586 -10 510 22 529 -10 b 675 21 621 -10 654 4 b 653 147 658 54 653 99 z "},"i":{"ha":376,"x_min":0,"x_max":0,"o":""},"j":{"ha":386,"x_min":0,"x_max":0,"o":"m 279 567 b 169 690 279 643 239 690 l 151 690 b 50 685 129 690 88 689 b 43 632 46 665 43 649 b 50 581 43 614 46 599 l 78 581 b 138 508 124 581 138 558 l 138 -44 b 38 -217 138 -140 115 -178 b 79 -304 42 -253 60 -286 b 279 25 268 -256 279 -157 z m 93 876 b 106 815 93 857 97 832 b 182 797 121 804 154 797 b 258 815 207 797 244 804 b 271 876 267 832 271 857 b 258 939 271 896 267 922 b 182 956 243 949 207 956 b 106 939 154 956 122 949 b 93 876 97 922 93 897 z "},"k":{"ha":697,"x_min":0,"x_max":0,"o":"m 560 258 b 432 383 531 329 490 368 b 478 438 449 397 464 415 l 629 678 l 621 689 b 544 690 594 690 574 690 b 451 629 496 690 474 668 l 329 438 b 296 418 321 424 311 418 l 249 415 l 249 929 b 172 1021 249 993 232 1021 l 117 1021 l 108 1013 l 108 0 b 178 -6 129 -4 153 -6 b 249 0 204 -6 229 -4 l 249 296 b 313 299 271 297 292 299 b 431 207 376 299 401 279 l 486 71 b 578 -10 507 18 526 -10 b 674 35 614 -10 653 11 b 607 143 643 56 625 96 z "},"l":{"ha":408,"x_min":0,"x_max":0,"o":"m 301 107 b 247 169 264 107 247 128 l 247 929 b 169 1021 247 993 229 1021 l 115 1021 l 106 1013 l 106 138 b 243 -6 106 42 153 -6 b 361 4 281 -6 329 -1 b 365 35 364 14 365 25 b 353 107 365 61 360 88 z "},"m":{"ha":1107,"x_min":0,"x_max":0,"o":"m 485 435 l 485 0 b 557 -6 504 -4 531 -6 b 628 0 582 -6 608 -4 l 628 482 l 628 483 b 778 568 674 535 731 568 b 861 436 833 568 861 533 l 861 82 b 938 -10 861 22 882 -10 b 1028 21 972 -10 1007 4 b 1006 147 1010 54 1006 99 l 1006 481 b 826 699 1006 601 949 699 b 606 596 747 699 669 654 b 447 699 579 657 526 699 b 250 604 376 699 307 660 b 171 692 247 660 225 692 l 117 692 l 108 682 l 108 0 b 181 -6 129 -4 154 -6 b 251 0 206 -6 232 -4 l 251 483 b 401 568 296 533 354 568 b 485 435 457 568 485 532 z "},"n":{"ha":758,"x_min":0,"x_max":0,"o":"m 656 471 b 471 699 656 599 601 699 b 250 606 388 699 310 660 b 171 692 247 660 225 692 l 117 692 l 108 683 l 108 0 b 181 -6 129 -4 154 -6 b 251 0 206 -6 232 -4 l 251 482 b 426 568 300 536 371 568 b 513 435 493 568 513 528 l 513 82 b 589 -10 513 22 532 -10 b 679 21 624 -10 658 4 b 656 147 661 54 656 99 z "},"o":{"ha":722,"x_min":0,"x_max":0,"o":"m 661 343 b 563 628 661 457 636 554 b 361 704 511 679 443 704 b 160 628 279 704 211 679 b 61 343 86 554 61 457 b 160 58 61 228 86 132 b 361 -18 211 7 279 -18 b 563 58 443 -18 511 7 b 661 343 636 132 661 228 z m 210 343 b 361 594 210 471 242 594 b 514 343 481 594 514 471 b 361 92 514 214 481 92 b 210 343 242 92 210 214 z "},"p":{"ha":736,"x_min":0,"x_max":0,"o":"m 675 351 b 436 704 675 560 594 704 b 246 621 358 704 293 669 b 161 692 236 665 208 692 l 117 692 l 108 683 l 108 -290 l 117 -299 l 172 -299 b 250 -207 232 -299 250 -271 l 250 33 b 408 -12 297 7 350 -12 b 675 351 542 -12 675 103 z m 403 583 b 529 351 469 583 529 517 b 389 103 529 182 467 103 b 250 153 340 103 292 125 l 250 493 b 403 583 293 556 353 583 z "},"q":{"ha":735,"x_min":0,"x_max":0,"o":"m 486 -207 b 564 -299 486 -271 503 -299 l 618 -299 l 626 -290 l 626 490 b 665 622 626 544 635 594 b 611 696 658 647 635 682 b 517 633 567 686 538 664 b 326 704 472 672 413 704 b 61 342 196 704 61 588 b 303 -12 61 131 142 -12 b 486 60 376 -12 440 19 z m 332 107 b 207 340 265 107 207 175 b 349 589 207 510 269 589 b 486 528 394 589 443 565 l 486 513 l 486 188 b 332 107 444 139 389 107 z "},"r":{"ha":511,"x_min":0,"x_max":0,"o":"m 69 619 b 121 476 93 597 121 550 l 121 0 b 193 -6 140 -4 167 -6 b 264 0 218 -6 244 -4 l 264 453 b 413 558 293 510 338 558 b 469 551 432 557 451 557 b 504 688 494 592 504 649 b 431 696 478 693 456 696 b 249 572 338 696 281 643 b 122 696 229 638 188 682 b 69 619 99 681 76 646 z "},"s":{"ha":608,"x_min":0,"x_max":0,"o":"m 43 51 b 293 -18 103 15 192 -18 b 558 189 449 -18 558 60 b 382 397 558 296 485 358 l 299 429 b 213 514 240 451 213 474 b 313 594 213 561 251 594 b 497 549 381 594 450 571 b 540 654 524 571 540 618 b 313 704 482 681 388 704 b 68 499 174 704 68 626 b 244 300 68 393 147 336 l 322 271 b 410 176 379 250 410 215 b 285 90 408 125 361 90 b 90 151 221 90 149 119 b 43 51 65 129 44 83 z "},"t":{"ha":486,"x_min":0,"x_max":0,"o":"m 446 688 l 275 683 l 275 889 l 265 899 l 211 899 b 135 807 151 899 135 871 l 135 685 l 32 688 b 26 635 28 668 26 653 b 32 581 26 615 28 599 l 135 582 l 135 138 b 281 -6 135 42 186 -6 b 436 4 336 -6 390 -1 b 439 35 439 14 439 25 b 428 107 439 60 435 88 l 332 107 b 275 168 290 107 275 131 l 275 583 l 446 581 b 453 635 451 599 453 615 b 446 688 453 653 451 668 z "},"u":{"ha":760,"x_min":0,"x_max":0,"o":"m 103 215 b 286 -12 103 88 157 -12 b 518 90 375 -12 457 32 b 635 -10 536 39 574 1 b 689 63 658 4 681 36 b 650 194 658 90 650 140 l 650 686 b 578 692 629 689 603 692 b 506 686 551 692 525 689 l 506 201 b 332 117 456 149 386 117 b 246 250 264 117 246 157 l 246 604 b 169 694 246 664 225 694 b 79 664 135 694 100 682 b 103 539 97 632 103 588 z "},"v":{"ha":632,"x_min":0,"x_max":0,"o":"m 328 117 b 315 128 319 117 318 117 b 261 329 306 169 283 260 l 168 635 b 90 696 157 681 131 696 b 8 675 67 696 39 689 l 200 72 b 304 -7 222 4 247 -7 b 408 0 339 -7 376 -6 b 622 675 460 153 558 461 l 618 681 b 546 692 596 689 571 692 b 492 686 529 692 511 690 z "},"w":{"ha":1004,"x_min":0,"x_max":0,"o":"m 175 72 b 272 -7 192 6 224 -7 b 388 0 308 -7 356 -4 l 443 265 b 500 553 458 338 482 453 l 507 553 l 560 264 l 600 71 b 700 -7 613 3 644 -7 b 808 -1 733 -7 779 -6 l 976 674 l 972 681 b 900 692 954 689 924 692 b 839 686 879 692 856 690 l 764 349 b 714 107 746 267 729 188 b 703 118 706 107 704 108 l 589 682 b 504 689 569 688 525 689 b 418 682 483 689 440 688 l 301 107 b 290 118 294 107 293 108 b 244 349 281 171 264 263 l 182 638 b 115 696 174 679 153 696 b 31 676 90 696 64 692 z "},"x":{"ha":639,"x_min":0,"x_max":0,"o":"m 460 686 l 328 471 l 210 654 b 136 697 190 682 172 697 b 39 664 106 697 67 685 l 239 354 l 21 15 l 25 4 b 99 -7 44 -3 71 -7 b 158 -1 119 -7 146 -6 l 308 244 l 447 32 b 522 -11 467 4 486 -11 b 621 22 554 -11 593 4 l 397 364 l 593 671 l 589 682 b 518 692 571 688 546 692 b 460 686 497 692 472 689 z "},"y":{"ha":650,"x_min":0,"x_max":0,"o":"m 633 674 l 629 682 b 554 692 606 689 581 692 b 493 686 535 692 511 690 l 340 99 b 328 108 333 99 331 100 b 276 313 315 161 296 249 l 182 632 b 110 696 168 682 144 696 b 22 675 86 696 56 689 l 206 68 b 313 -7 222 11 256 -6 l 308 -24 b 142 -196 276 -129 235 -196 b 39 -178 104 -196 61 -186 b 7 -281 19 -200 4 -247 b 140 -303 36 -292 97 -303 b 450 22 325 -303 389 -189 z "},"z":{"ha":619,"x_min":0,"x_max":0,"o":"m 71 135 b 49 79 54 113 49 94 b 68 0 49 60 54 42 l 482 0 b 572 68 551 0 572 26 b 558 131 572 89 568 108 b 410 111 525 115 472 111 l 343 111 b 215 106 310 111 260 110 l 211 111 b 318 246 244 151 288 203 l 544 553 b 563 601 556 569 563 586 b 542 686 563 621 556 644 l 76 686 b 68 621 71 664 68 639 b 74 575 68 608 69 589 l 219 575 b 403 583 276 575 364 578 l 407 578 b 297 443 374 536 329 486 z "},"A":{"ha":849,"x_min":0,"x_max":0,"o":"m 322 229 l 513 229 b 596 231 524 229 572 231 l 647 68 b 735 -10 665 7 689 -10 b 821 10 767 -10 800 -4 l 510 949 b 426 954 489 953 450 954 b 342 949 403 954 364 953 l 28 10 l 32 3 b 104 -7 51 -3 78 -7 b 168 -1 126 -7 150 -6 l 242 231 b 322 229 265 231 311 229 z m 360 601 b 414 803 375 653 400 740 l 421 803 b 494 551 440 729 469 632 l 558 350 b 489 351 536 350 499 351 l 350 351 b 279 350 339 351 301 350 z "},"B":{"ha":840,"x_min":0,"x_max":0,"o":"m 135 950 l 126 940 l 126 8 l 135 -1 b 442 -6 239 -3 329 -6 b 772 265 672 -6 772 111 b 596 508 772 385 690 481 b 726 703 674 539 726 615 b 424 954 726 860 628 954 b 135 950 332 954 236 951 z m 432 442 b 621 274 581 442 621 343 b 440 107 621 203 590 107 b 272 106 389 107 331 106 l 272 442 z m 272 843 b 421 842 317 842 382 842 b 578 699 551 842 578 767 b 418 556 578 633 549 556 l 272 556 z "},"C":{"ha":839,"x_min":0,"x_max":0,"o":"m 639 621 b 700 613 663 615 678 613 b 783 696 760 613 783 646 b 449 967 783 836 656 967 b 68 469 244 967 68 815 b 429 -18 68 224 164 -18 b 776 121 572 -18 700 44 b 703 217 767 156 735 196 b 454 111 622 150 540 111 b 224 469 310 111 224 240 b 446 847 224 715 300 847 b 639 621 596 847 642 726 z "},"D":{"ha":900,"x_min":0,"x_max":0,"o":"m 829 474 b 682 883 829 635 807 781 b 440 954 622 933 514 954 b 135 950 328 954 256 954 l 126 940 l 126 8 l 135 -1 b 440 -7 256 -4 328 -7 b 682 64 514 -7 622 14 b 829 474 808 167 829 311 z m 676 474 b 440 113 676 310 646 113 b 274 113 382 113 336 114 l 274 836 b 440 835 336 836 382 835 b 676 474 646 835 676 640 z "},"E":{"ha":786,"x_min":0,"x_max":0,"o":"m 721 125 l 361 125 b 269 121 325 125 297 124 b 271 192 269 147 271 167 l 271 419 b 357 418 303 418 336 418 l 618 418 b 625 479 624 438 625 463 b 618 540 625 496 624 521 l 357 540 b 271 539 336 540 303 539 l 271 733 b 269 824 271 769 269 788 b 357 824 301 822 336 824 l 686 824 b 697 890 694 846 697 874 b 693 949 697 907 697 926 l 135 949 l 125 940 l 125 90 b 210 -1 125 33 157 -1 l 622 -1 b 717 68 675 -1 708 21 b 721 125 721 88 721 113 z "},"F":{"ha":725,"x_min":0,"x_max":0,"o":"m 274 0 l 274 415 l 332 415 l 611 415 b 618 478 617 435 618 461 b 611 539 618 493 617 519 l 332 539 b 274 538 314 539 294 539 l 274 660 b 272 824 274 713 272 768 b 406 822 311 822 354 822 l 610 822 b 693 890 665 822 693 842 b 685 949 693 908 690 932 l 135 949 l 126 940 l 126 0 b 200 -6 149 -4 176 -6 b 274 0 224 -6 250 -4 z "},"G":{"ha":893,"x_min":0,"x_max":0,"o":"m 486 499 b 475 438 479 481 475 456 b 544 372 475 390 497 372 l 667 372 b 664 283 664 344 664 315 l 664 128 b 488 104 618 114 558 104 b 222 467 314 104 222 224 b 479 840 222 740 338 840 b 732 754 574 840 663 807 b 803 865 763 775 796 819 b 479 967 719 928 599 967 b 68 468 275 967 68 821 b 463 -18 68 208 175 -18 b 806 42 600 -18 722 10 l 806 403 b 700 500 806 464 778 500 z "},"H":{"ha":938,"x_min":0,"x_max":0,"o":"m 663 0 b 738 -6 686 -4 714 -6 b 811 0 761 -6 788 -4 l 811 949 b 736 954 789 953 758 954 b 663 949 714 954 685 953 l 663 654 b 664 551 663 615 664 589 b 586 553 650 551 599 553 l 351 553 b 272 551 339 553 286 551 b 274 654 272 589 274 615 l 274 949 b 199 954 251 953 222 954 b 126 949 178 954 147 953 l 126 0 b 199 -6 147 -4 178 -6 b 274 0 222 -6 251 -4 l 274 325 b 272 428 274 364 272 390 b 351 426 286 428 339 426 l 586 426 b 664 428 599 426 650 428 b 663 325 664 390 663 364 z "},"I":{"ha":408,"x_min":0,"x_max":0,"o":"m 131 0 b 204 -6 151 -4 182 -6 b 278 0 226 -6 256 -4 l 278 949 b 204 954 256 953 226 954 b 131 949 182 954 151 953 z "},"J":{"ha":622,"x_min":0,"x_max":0,"o":"m 69 156 b 14 44 40 125 21 85 b 231 -14 75 7 158 -14 b 514 346 471 -14 514 142 l 514 949 b 442 954 492 953 464 954 b 367 949 419 954 389 953 l 367 325 b 218 110 367 176 332 110 b 69 156 167 110 111 131 z "},"K":{"ha":828,"x_min":0,"x_max":0,"o":"m 806 39 b 743 139 775 64 761 93 l 668 340 b 500 511 632 435 593 493 b 556 581 521 529 539 553 l 765 936 l 756 949 b 671 953 726 951 696 953 b 582 893 622 953 606 933 l 404 592 b 351 553 389 564 379 553 l 274 550 l 274 949 b 199 954 251 953 222 954 b 126 949 178 954 147 953 l 126 0 b 199 -6 147 -4 178 -6 b 274 0 222 -6 251 -4 l 274 424 b 368 426 317 426 349 426 b 533 285 450 426 494 389 l 608 81 b 706 -8 629 22 647 -8 b 806 39 742 -8 786 8 z "},"L":{"ha":711,"x_min":0,"x_max":0,"o":"m 397 128 b 274 122 360 128 317 126 l 274 860 b 190 954 274 925 251 954 l 135 954 l 125 946 l 125 90 b 211 -1 125 31 161 -1 l 574 -1 b 669 69 626 -1 661 22 b 674 128 672 88 674 113 z "},"M":{"ha":1122,"x_min":0,"x_max":0,"o":"m 103 1 b 176 -7 122 -4 151 -7 b 243 -1 199 -7 222 -6 l 276 507 b 288 789 281 582 285 707 l 296 789 l 486 144 b 560 139 507 142 538 139 b 636 144 582 139 614 142 l 826 789 l 835 789 b 846 507 836 707 840 582 l 878 -1 b 944 -7 900 -6 921 -7 b 1019 1 968 -7 999 -4 l 946 949 b 846 954 910 954 869 954 b 751 949 821 954 788 954 l 619 514 b 565 293 607 471 571 332 l 557 293 b 501 514 550 332 515 471 l 369 949 b 276 954 338 954 300 954 b 176 949 253 954 210 954 z "},"N":{"ha":944,"x_min":0,"x_max":0,"o":"m 810 954 l 761 954 b 682 863 701 954 682 928 l 682 517 b 693 167 682 421 686 278 l 688 165 b 596 367 661 222 631 294 l 303 949 b 214 954 274 953 233 954 b 126 947 196 954 150 951 l 126 0 b 196 -6 150 -4 176 -6 b 264 0 215 -6 239 -4 l 264 433 b 251 774 264 538 257 678 l 257 775 b 344 582 282 717 311 651 l 640 0 b 729 -6 669 -4 711 -6 b 818 1 747 -6 794 -3 l 818 947 z "},"O":{"ha":914,"x_min":0,"x_max":0,"o":"m 224 475 b 457 849 224 643 263 849 b 689 475 650 849 689 643 b 457 100 689 307 650 100 b 224 475 263 100 224 307 z m 68 475 b 217 65 68 324 107 160 b 457 -18 274 15 346 -18 b 697 65 568 -18 640 15 b 844 475 807 160 844 324 b 697 883 844 625 807 789 b 457 967 640 933 568 967 b 217 883 346 967 274 933 b 68 475 107 789 68 625 z "},"P":{"ha":789,"x_min":0,"x_max":0,"o":"m 739 644 b 421 954 739 853 606 954 b 135 950 326 954 239 951 l 126 940 l 126 0 b 199 -6 147 -4 178 -6 b 274 0 222 -6 251 -4 l 274 335 l 421 335 b 739 644 607 335 739 442 z m 274 838 b 415 836 319 836 376 836 b 585 644 554 836 585 729 b 415 453 585 561 554 453 b 274 451 389 453 325 451 z "},"Q":{"ha":906,"x_min":0,"x_max":0,"o":"m 629 -140 b 736 -178 658 -162 692 -178 b 836 -69 785 -178 832 -142 b 660 7 788 -69 747 -56 l 629 29 b 710 86 657 40 683 58 b 836 475 808 181 836 332 b 692 886 836 622 801 790 b 453 967 635 936 564 967 b 213 886 342 967 269 936 b 68 475 103 790 68 622 b 213 63 68 326 103 160 b 457 -18 271 14 346 -18 l 471 -18 z m 222 475 b 453 849 222 646 258 849 b 682 475 647 849 682 646 b 453 103 682 306 647 103 b 222 475 258 103 222 306 z "},"R":{"ha":833,"x_min":0,"x_max":0,"o":"m 749 669 b 433 954 749 854 626 954 b 135 950 339 954 239 951 l 126 940 l 126 0 b 199 -6 147 -4 176 -6 b 272 0 222 -6 250 -4 l 272 382 l 386 382 b 526 268 472 382 503 332 l 596 81 b 693 -10 618 21 638 -10 b 793 36 731 -10 774 7 b 731 136 761 61 744 99 l 669 299 b 571 417 650 353 617 400 b 749 669 672 449 749 542 z m 272 839 b 426 838 319 838 386 838 b 596 669 563 838 596 754 b 426 503 596 589 563 503 b 272 500 388 503 326 501 z "},"S":{"ha":772,"x_min":0,"x_max":0,"o":"m 42 86 b 375 -18 135 21 260 -18 b 715 261 604 -18 715 101 b 507 519 715 385 626 469 l 346 589 b 231 714 278 618 231 653 b 397 844 231 788 294 844 b 635 779 468 844 563 815 b 689 894 665 807 688 853 b 394 967 617 931 510 967 b 81 697 208 967 81 849 b 271 457 81 579 154 507 l 435 386 b 561 236 515 351 561 301 b 383 106 560 160 496 106 b 104 200 288 106 185 147 b 42 86 74 175 46 129 z "},"T":{"ha":683,"x_min":0,"x_max":0,"o":"m 268 0 b 343 -6 292 -4 321 -6 b 417 0 365 -6 393 -4 l 417 825 b 497 824 436 825 479 824 l 588 824 b 671 890 644 824 671 842 b 663 949 671 910 667 932 l 24 949 b 18 886 19 926 18 904 b 24 824 18 868 19 846 l 189 824 b 268 825 208 824 250 825 l 269 825 b 268 722 269 786 268 760 z "},"U":{"ha":929,"x_min":0,"x_max":0,"o":"m 815 949 b 739 954 793 953 761 954 b 667 949 717 954 689 953 l 667 333 b 464 101 667 181 597 101 b 261 333 332 101 261 181 l 261 860 b 179 954 261 925 239 954 l 122 954 l 114 946 l 114 333 b 464 -18 114 103 251 -18 b 815 333 676 -18 815 103 z "},"V":{"ha":799,"x_min":0,"x_max":0,"o":"m 417 132 b 404 146 410 132 407 135 b 343 385 388 219 363 317 l 200 886 b 119 958 185 939 160 958 b 28 936 88 958 56 949 l 283 65 b 386 -7 301 3 338 -7 b 500 -1 424 -7 464 -4 l 775 935 l 768 946 b 701 954 750 951 722 954 b 638 949 678 954 657 953 z "},"W":{"ha":1181,"x_min":0,"x_max":0,"o":"m 217 67 b 314 -7 229 3 268 -7 b 442 0 353 -7 406 -4 l 526 438 b 588 781 544 531 568 661 l 597 781 b 653 438 615 661 638 528 l 719 65 b 811 -7 731 3 767 -7 b 943 1 849 -7 907 -4 l 1142 936 l 1135 946 b 1064 954 1114 951 1086 954 b 997 949 1043 954 1018 953 l 890 408 b 840 122 876 335 853 207 b 828 139 833 122 831 124 l 689 929 b 594 936 665 933 622 936 b 499 929 567 936 526 933 l 347 122 b 335 139 339 122 336 124 b 290 407 325 206 303 336 l 203 879 b 124 958 193 939 172 958 b 42 940 97 958 69 953 z "},"X":{"ha":815,"x_min":0,"x_max":0,"o":"m 618 949 l 419 622 l 249 900 b 156 958 221 944 193 958 b 58 926 125 958 89 947 l 322 496 l 25 17 l 29 7 b 107 -7 47 -1 78 -7 b 171 0 131 -7 157 -4 l 397 375 l 599 50 b 693 -10 628 4 656 -10 b 790 22 724 -10 760 1 l 494 501 l 761 932 l 757 942 b 679 956 739 950 710 956 b 618 949 657 956 632 953 z "},"Y":{"ha":699,"x_min":0,"x_max":0,"o":"m 421 631 b 360 454 406 590 375 510 l 353 454 b 294 628 336 511 314 579 l 185 894 b 106 958 167 939 146 958 b 13 932 76 958 44 950 l 276 307 l 276 0 b 350 -6 297 -4 328 -6 b 425 0 374 -6 401 -4 l 425 304 l 689 935 l 682 944 b 610 956 661 951 636 956 b 547 949 590 956 568 954 z "},"Z":{"ha":781,"x_min":0,"x_max":0,"o":"m 86 157 b 67 93 72 136 67 114 b 85 0 67 79 68 64 l 613 0 b 715 82 681 0 715 29 b 703 154 715 107 710 133 b 539 128 667 136 613 128 l 394 128 b 228 119 351 128 286 125 l 224 124 b 332 272 260 171 303 228 l 681 794 b 700 853 694 815 700 835 b 679 949 700 867 699 882 l 107 949 b 96 874 100 924 96 900 b 101 824 96 858 97 840 l 325 824 b 542 835 367 824 496 826 l 546 831 b 436 683 507 779 465 726 z "},"&":{"ha":865,"x_min":0,"x_max":0,"o":"m 435 565 b 263 710 315 565 263 622 b 414 849 263 790 317 849 b 617 813 489 849 554 832 b 656 926 642 840 656 888 b 400 967 592 949 494 967 b 110 719 217 967 110 857 b 253 508 110 619 169 536 b 69 250 156 478 69 379 b 336 -18 69 99 161 -18 b 558 56 417 -18 497 11 l 569 -1 b 636 -8 586 -6 610 -8 b 704 0 663 -8 686 -6 b 694 210 701 53 694 157 l 694 354 b 693 440 694 376 693 408 l 738 440 b 842 517 799 440 842 460 b 822 586 842 542 835 571 b 690 565 790 572 740 565 z m 553 353 l 553 164 b 369 99 513 131 444 99 b 222 257 281 99 222 157 b 421 440 222 349 279 440 l 554 440 b 553 353 553 408 553 376 z "},".":{"ha":365,"x_min":0,"x_max":0,"o":"m 85 76 b 97 7 85 60 89 24 b 183 -11 117 -4 153 -11 b 268 7 211 -11 251 -4 b 281 76 276 24 281 60 b 268 144 281 93 276 129 b 183 164 250 156 211 164 b 97 144 153 164 117 156 b 85 76 89 129 85 93 z "},"·":{"ha":424,"x_min":0,"x_max":0,"o":"m 119 394 b 132 325 119 378 124 342 b 213 307 150 314 183 307 b 292 325 239 307 276 314 b 304 394 300 342 304 378 b 292 463 304 411 300 447 b 213 482 275 474 239 482 b 132 463 183 482 150 474 b 119 394 124 447 119 411 z "},"•":{"ha":621,"x_min":0,"x_max":0,"o":"m 153 378 b 174 258 153 349 160 286 b 314 226 206 239 264 226 b 451 258 358 226 425 239 b 472 378 465 286 472 349 b 451 496 472 407 465 469 b 314 529 422 515 358 529 b 174 496 264 529 206 515 b 153 378 160 469 153 407 z "},",":{"ha":374,"x_min":0,"x_max":0,"o":"m 274 144 b 190 163 257 156 218 163 b 106 144 163 163 122 154 b 93 74 97 132 93 97 b 106 7 93 50 99 21 b 161 -12 118 -1 143 -8 b 46 -151 157 -72 110 -124 b 83 -224 44 -179 58 -211 b 289 53 221 -176 289 -64 b 274 144 289 86 283 119 z "},":":{"ha":374,"x_min":0,"x_max":0,"o":"m 89 76 b 101 7 89 60 93 24 b 188 -11 121 -4 157 -11 b 272 7 215 -11 256 -4 b 285 76 281 24 285 60 b 272 144 285 93 281 129 b 188 164 254 156 215 164 b 101 144 157 164 121 156 b 89 76 93 129 89 93 z m 89 533 b 101 464 89 517 93 481 b 188 446 121 453 157 446 b 272 464 215 446 256 453 b 285 533 281 481 285 517 b 272 601 285 550 281 586 b 188 621 254 613 215 621 b 101 601 157 621 121 613 b 89 533 93 586 89 550 z "},";":{"ha":379,"x_min":0,"x_max":0,"o":"m 272 144 b 189 163 256 156 217 163 b 104 144 161 163 121 154 b 92 74 96 132 92 97 b 104 7 92 50 97 21 b 160 -12 117 -1 142 -8 b 44 -151 156 -72 108 -124 b 82 -224 43 -179 57 -211 b 288 53 219 -176 288 -64 b 272 144 288 86 282 119 z m 92 533 b 104 464 92 517 96 481 b 190 446 124 453 160 446 b 275 464 218 446 258 453 b 288 533 283 481 288 517 b 275 601 288 550 283 586 b 190 621 257 613 218 621 b 104 601 160 621 124 613 b 92 533 96 586 92 550 z "},"!":{"ha":400,"x_min":0,"x_max":0,"o":"m 142 269 b 199 263 158 264 182 263 b 253 269 215 263 235 264 l 288 949 l 278 958 b 125 917 217 958 158 942 z m 197 153 b 119 135 168 153 138 146 b 107 69 111 122 107 89 b 119 6 107 50 111 18 b 197 -12 138 -6 168 -12 b 276 6 225 -12 258 -6 b 289 69 283 18 289 50 b 276 135 289 89 283 122 b 197 153 258 146 225 153 z "},"¡":{"ha":400,"x_min":0,"x_max":0,"o":"m 258 415 b 201 422 240 421 218 422 b 147 415 185 422 165 421 l 113 -262 l 122 -274 b 275 -232 183 -274 242 -257 z m 203 533 b 281 550 232 533 263 539 b 293 615 289 563 293 596 b 281 681 293 635 289 667 b 203 697 263 690 232 697 b 124 681 175 697 142 690 b 111 615 117 667 111 635 b 124 550 111 596 117 563 b 203 533 142 539 175 533 z "},"?":{"ha":550,"x_min":0,"x_max":0,"o":"m 15 896 b 68 789 18 857 43 810 b 249 839 124 817 186 839 b 385 715 335 839 385 790 b 219 528 385 635 318 578 l 153 493 l 140 478 l 149 271 b 206 263 165 265 188 263 b 258 271 224 263 242 265 l 269 413 l 357 460 b 538 729 458 517 538 601 b 281 967 538 872 439 967 b 15 896 183 967 90 938 z m 204 151 b 126 133 175 151 144 144 b 114 68 119 121 114 88 b 126 4 114 49 119 17 b 204 -14 144 -7 175 -14 b 283 4 233 -14 265 -7 b 296 68 292 17 296 49 b 283 133 296 88 292 121 b 204 151 265 144 233 151 z "},"¿":{"ha":550,"x_min":0,"x_max":0,"o":"m 539 -212 b 486 -104 536 -174 511 -126 b 306 -156 431 -133 368 -156 b 169 -32 219 -156 169 -106 b 333 157 169 50 236 106 l 401 190 l 414 206 l 406 413 b 349 421 389 419 367 421 b 294 413 331 421 311 419 l 283 272 l 197 224 b 15 -46 96 167 15 83 b 274 -283 15 -189 115 -283 b 539 -212 371 -283 464 -253 z m 349 533 b 428 550 378 533 408 539 b 439 615 435 563 439 596 b 428 681 439 635 435 667 b 349 697 408 690 378 697 b 271 681 321 697 289 690 b 258 615 263 667 258 635 b 271 550 258 596 263 563 b 349 533 289 539 321 533 z "},"‘":{"ha":317,"x_min":0,"x_max":0,"o":"m 75 719 b 157 701 90 708 129 701 b 242 719 186 701 225 710 b 256 790 250 732 256 767 b 242 857 256 814 250 844 b 183 872 231 865 201 871 b 281 990 186 928 235 969 b 243 1061 283 1018 269 1049 b 58 811 121 1017 58 922 b 75 719 58 778 64 744 z "},"’":{"ha":317,"x_min":0,"x_max":0,"o":"m 242 1042 b 160 1060 226 1051 188 1060 b 74 1042 131 1060 90 1050 b 61 971 67 1028 61 994 b 74 904 61 947 67 917 b 133 888 86 894 114 890 b 36 769 131 833 82 792 b 74 699 33 743 47 711 b 257 949 196 743 257 838 b 242 1042 257 982 253 1017 z "},"“":{"ha":586,"x_min":0,"x_max":0,"o":"m 74 719 b 156 701 89 708 128 701 b 240 719 185 701 224 710 b 254 790 249 732 254 767 b 240 857 254 814 249 844 b 182 872 229 865 200 871 b 279 990 185 928 233 969 b 242 1061 282 1018 268 1049 b 57 811 119 1017 57 922 b 74 719 57 778 63 744 z m 343 719 b 425 701 358 708 397 701 b 510 719 454 701 493 710 b 524 790 518 732 524 767 b 510 857 524 814 518 844 b 451 872 499 865 469 871 b 549 990 454 928 503 969 b 511 1061 551 1018 538 1049 b 326 811 389 1017 326 922 b 343 719 326 778 332 744 z "},"”":{"ha":586,"x_min":0,"x_max":0,"o":"m 244 1042 b 163 1060 229 1051 190 1060 b 76 1042 133 1060 93 1050 b 64 971 69 1028 64 994 b 76 904 64 947 69 917 b 136 888 89 894 117 890 b 39 769 133 833 85 792 b 76 699 36 743 50 711 b 260 949 199 743 260 838 b 244 1042 260 982 256 1017 z m 514 1042 b 432 1060 499 1051 460 1060 b 346 1042 403 1060 363 1050 b 333 971 339 1028 333 994 b 346 904 333 947 339 917 b 406 888 358 894 386 890 b 308 769 403 833 354 792 b 346 699 306 743 319 711 b 529 949 468 743 529 838 b 514 1042 529 982 525 1017 z "},"'":{"ha":293,"x_min":0,"x_max":0,"o":"m 60 976 b 103 706 60 953 88 842 b 179 706 122 696 161 696 b 222 976 194 840 222 953 b 213 1043 222 1000 218 1021 b 140 1061 194 1054 168 1061 b 69 1043 111 1061 88 1054 b 60 976 64 1021 60 1000 z "},"‚":{"ha":318,"x_min":0,"x_max":0,"o":"m 247 140 b 165 160 232 151 193 160 b 81 140 136 160 96 150 b 67 71 72 128 67 93 b 81 4 67 47 72 17 b 139 -12 92 -6 121 -10 b 42 -131 136 -67 88 -110 b 79 -201 39 -157 53 -189 b 263 49 201 -157 263 -62 b 247 140 263 82 258 117 z "},"\"":{"ha":542,"x_min":0,"x_max":0,"o":"m 315 976 b 358 706 315 953 343 842 b 435 706 378 696 417 696 b 478 976 450 840 478 953 b 468 1043 478 1000 474 1021 b 396 1061 450 1054 424 1061 b 325 1043 367 1061 343 1054 b 315 976 319 1021 315 1000 z m 64 976 b 107 706 64 953 92 842 b 183 706 126 696 165 696 b 226 976 199 840 226 953 b 217 1043 226 1000 222 1021 b 144 1061 199 1054 172 1061 b 74 1043 115 1061 92 1054 b 64 976 68 1021 64 1000 z "},"„":{"ha":588,"x_min":0,"x_max":0,"o":"m 247 140 b 165 160 232 151 193 160 b 81 140 136 160 96 150 b 67 71 72 128 67 93 b 81 4 67 47 72 17 b 139 -12 92 -6 121 -10 b 42 -131 136 -67 88 -110 b 79 -201 39 -157 53 -189 b 263 49 201 -157 263 -62 b 247 140 263 82 258 117 z m 517 140 b 435 160 501 151 463 160 b 350 140 406 160 365 150 b 336 71 342 128 336 93 b 350 4 336 47 342 17 b 408 -12 361 -6 390 -10 b 311 -131 406 -67 357 -110 b 349 -201 308 -157 322 -189 b 532 49 471 -157 532 -62 b 517 140 532 82 528 117 z "},"‹":{"ha":461,"x_min":0,"x_max":0,"o":"m 403 581 b 322 656 392 611 356 646 l 54 400 b 54 308 43 375 43 333 l 328 51 b 410 126 361 61 399 96 l 210 357 z "},"›":{"ha":461,"x_min":0,"x_max":0,"o":"m 58 128 b 138 51 69 96 106 61 l 407 308 b 407 399 417 332 417 374 l 132 656 b 50 581 100 646 61 611 l 250 351 z "},"«":{"ha":775,"x_min":0,"x_max":0,"o":"m 718 581 b 638 656 707 611 671 646 l 369 400 b 369 308 358 375 358 333 l 643 51 b 725 126 676 61 714 96 l 525 357 z m 403 581 b 322 656 392 611 356 646 l 54 400 b 54 308 43 375 43 333 l 328 51 b 410 126 361 61 399 96 l 210 357 z "},"»":{"ha":775,"x_min":0,"x_max":0,"o":"m 58 128 b 138 51 69 96 106 61 l 407 308 b 407 399 417 332 417 374 l 132 656 b 50 581 100 646 61 611 l 250 351 z m 374 128 b 453 51 385 96 421 61 l 722 308 b 722 399 732 332 732 374 l 447 656 b 365 581 415 646 376 611 l 565 351 z "},"¹":{"ha":583,"x_min":0,"x_max":0,"o":"m 82 872 b 136 794 88 842 108 808 b 265 889 193 819 235 847 b 261 799 264 856 261 821 l 261 578 l 119 578 b 114 525 115 563 114 543 b 119 472 114 508 115 492 l 496 472 b 501 525 500 490 501 508 b 496 578 501 543 500 563 l 381 578 l 381 1063 b 325 1069 357 1068 343 1069 b 265 1063 307 1069 286 1068 b 82 872 229 983 179 928 z "},"²":{"ha":583,"x_min":0,"x_max":0,"o":"m 490 581 l 325 581 b 207 569 293 581 250 576 b 283 642 219 590 244 613 l 361 703 b 475 896 431 757 475 810 b 281 1074 475 993 400 1074 b 85 929 179 1074 108 1007 b 178 886 100 908 146 889 b 271 964 194 929 228 964 b 344 890 314 964 344 932 b 283 789 344 850 328 824 l 182 706 b 76 544 121 656 76 599 b 117 469 76 515 103 488 l 419 469 b 489 528 458 469 482 492 b 490 581 490 542 490 567 z "},"³":{"ha":583,"x_min":0,"x_max":0,"o":"m 439 944 b 463 996 458 963 463 979 b 440 1064 463 1014 450 1044 l 101 1064 b 93 1010 94 1046 93 1024 b 100 961 93 999 93 981 l 211 961 b 321 968 242 961 296 963 l 324 964 b 269 919 307 953 283 933 l 160 810 b 208 744 165 782 188 753 b 265 757 225 753 247 757 b 360 661 326 757 360 715 b 249 564 360 597 313 564 b 119 610 200 564 158 583 b 71 525 97 590 76 557 b 267 464 115 490 183 464 b 486 658 375 464 486 528 b 318 835 486 765 411 835 b 358 865 333 844 347 854 z "},"¼":{"ha":1314,"x_min":0,"x_max":0,"o":"m 49 758 b 103 681 54 728 75 694 b 232 775 160 706 201 733 b 228 685 231 742 228 707 l 228 464 l 86 464 b 81 411 82 449 81 429 b 86 358 81 394 82 378 l 463 358 b 468 411 467 376 468 394 b 463 464 468 429 467 449 l 347 464 l 347 949 b 292 956 324 954 310 956 b 232 949 274 956 253 954 b 49 758 196 869 146 814 z m 375 0 b 515 0 400 -10 479 -11 l 1039 949 b 897 949 1013 958 933 960 z m 1051 4 b 1113 -1 1071 0 1094 -1 b 1169 4 1131 -1 1153 0 l 1169 113 l 1249 113 b 1258 174 1256 129 1258 154 b 1254 215 1258 186 1257 203 l 1169 215 b 1171 286 1169 233 1171 267 l 1171 378 l 1167 382 l 1132 382 b 1051 294 1083 382 1051 349 l 1051 249 b 1053 215 1051 243 1051 226 l 1028 215 b 929 213 1008 215 964 215 l 926 215 b 997 344 951 247 979 306 l 1103 572 b 986 600 1078 593 1024 604 l 824 249 b 803 185 815 232 803 204 b 831 111 803 164 817 133 l 996 111 b 1053 113 1015 111 1033 113 b 1051 63 1053 96 1051 79 z "},"½":{"ha":1314,"x_min":0,"x_max":0,"o":"m 354 0 b 494 0 379 -10 458 -11 l 1018 949 b 876 949 992 958 913 960 z m 49 758 b 103 681 54 728 75 694 b 232 775 160 706 201 733 b 228 685 231 742 228 707 l 228 464 l 86 464 b 81 411 82 449 81 429 b 86 358 81 394 82 378 l 463 358 b 468 411 467 376 468 394 b 463 464 468 429 467 449 l 347 464 l 347 949 b 292 956 324 954 310 956 b 232 949 274 956 253 954 b 49 758 196 869 146 814 z m 1246 111 l 1081 111 b 963 100 1049 111 1006 107 b 1039 172 975 121 1000 143 l 1117 233 b 1231 426 1186 288 1231 340 b 1036 604 1231 524 1156 604 b 840 460 935 604 864 538 b 933 417 856 439 901 419 b 1026 494 950 460 983 494 b 1100 421 1069 494 1100 463 b 1039 319 1100 381 1083 354 l 938 236 b 832 75 876 186 832 129 b 872 0 832 46 858 18 l 1175 0 b 1244 58 1214 0 1238 22 b 1246 111 1246 72 1246 97 z "},"¾":{"ha":1314,"x_min":0,"x_max":0,"o":"m 354 0 b 494 0 379 -10 458 -11 l 1018 949 b 876 949 992 958 913 960 z m 438 832 b 461 883 457 850 461 867 b 439 951 461 901 449 932 l 100 951 b 92 897 93 933 92 911 b 99 849 92 886 92 868 l 210 849 b 319 856 240 849 294 850 l 322 851 b 268 807 306 840 282 821 l 158 697 b 207 632 164 669 186 640 b 264 644 224 640 246 644 b 358 549 325 644 358 603 b 247 451 358 485 311 451 b 118 497 199 451 157 471 b 69 413 96 478 75 444 b 265 351 114 378 182 351 b 485 546 374 351 485 415 b 317 722 485 653 410 722 b 357 753 332 732 346 742 z m 1044 4 b 1106 -1 1064 0 1088 -1 b 1163 4 1124 -1 1146 0 l 1163 113 l 1242 113 b 1251 174 1249 129 1251 154 b 1247 215 1251 186 1250 203 l 1163 215 b 1164 286 1163 233 1164 267 l 1164 378 l 1160 382 l 1125 382 b 1044 294 1076 382 1044 349 l 1044 249 b 1046 215 1044 243 1044 226 l 1021 215 b 922 213 1001 215 957 215 l 919 215 b 990 344 944 247 972 306 l 1096 572 b 979 600 1071 593 1017 604 l 817 249 b 796 185 808 232 796 204 b 824 111 796 164 810 133 l 989 111 b 1046 113 1008 111 1026 113 b 1044 63 1046 96 1044 79 z "},"ª":{"ha":589,"x_min":0,"x_max":0,"o":"m 526 475 b 492 569 497 496 492 528 l 492 783 b 308 967 492 908 418 967 b 78 917 232 967 140 943 b 113 829 78 882 94 849 b 288 868 174 853 228 868 b 369 779 335 868 369 842 l 369 740 b 267 746 333 743 297 746 b 56 567 144 746 56 692 b 221 406 56 486 111 406 b 385 476 289 406 344 439 b 475 411 401 442 432 418 b 526 475 499 424 522 453 z m 249 500 b 176 575 204 500 176 535 b 272 661 176 628 213 661 b 369 656 301 661 338 658 l 369 560 b 249 500 331 521 285 500 z "},"º":{"ha":574,"x_min":0,"x_max":0,"o":"m 524 688 b 446 910 524 772 501 850 b 286 967 406 947 350 967 b 128 910 222 967 168 947 b 50 688 72 850 50 772 b 128 463 50 600 72 521 b 286 406 168 425 222 406 b 446 463 350 406 406 425 b 524 688 501 521 524 600 z m 174 688 b 288 871 174 785 203 871 b 399 688 371 871 399 785 b 288 503 399 588 371 503 b 174 688 203 503 174 588 z "},"°":{"ha":454,"x_min":0,"x_max":0,"o":"m 25 729 b 228 525 25 611 111 525 b 429 729 343 525 429 611 b 228 933 429 846 343 933 b 25 729 111 933 25 846 z m 135 729 b 228 835 135 790 169 835 b 319 729 283 835 319 790 b 228 622 319 667 283 622 b 135 729 169 622 135 667 z "},"<":{"ha":736,"x_min":0,"x_max":0,"o":"m 75 464 b 75 349 63 429 65 383 l 588 68 b 654 182 619 89 650 135 l 325 356 l 222 403 l 222 411 l 325 458 l 654 632 b 588 744 650 679 622 724 z "},">":{"ha":736,"x_min":0,"x_max":0,"o":"m 661 350 b 661 465 674 386 671 431 l 149 747 b 82 633 117 726 86 681 l 411 460 b 514 413 438 446 492 422 l 514 403 b 411 356 492 393 438 369 l 82 183 b 149 69 86 135 114 90 z "},"+":{"ha":736,"x_min":0,"x_max":0,"o":"m 303 536 b 304 468 303 515 304 490 b 236 469 282 468 257 469 l 78 469 b 72 408 74 450 72 432 b 78 346 72 385 74 364 l 236 346 b 304 347 257 346 282 347 b 303 281 304 325 303 300 l 303 108 b 369 103 324 104 344 103 b 433 108 392 103 414 104 l 433 281 b 432 347 433 300 432 325 b 500 346 453 347 478 346 l 658 346 b 664 408 663 364 664 385 b 658 469 664 432 663 449 l 500 469 b 432 468 478 469 453 468 b 433 536 432 490 433 515 l 433 707 b 368 713 414 711 392 713 b 303 707 344 713 324 711 z "},"±":{"ha":736,"x_min":0,"x_max":0,"o":"m 303 606 b 304 536 303 585 304 557 b 239 538 283 536 258 538 l 93 538 b 88 479 89 517 88 503 b 93 421 88 457 89 440 l 239 421 b 304 422 258 421 283 422 b 303 354 304 400 303 375 l 303 211 b 368 206 324 207 344 206 b 433 211 392 206 414 207 l 433 354 b 432 422 433 375 432 400 b 497 421 451 422 476 421 l 643 421 b 649 479 647 440 649 457 b 643 538 649 503 647 517 l 497 538 b 432 536 476 538 451 536 b 433 606 432 557 433 585 l 433 747 b 368 753 414 751 392 753 b 303 747 344 753 324 751 z m 643 0 b 649 60 647 21 649 38 b 643 119 649 83 647 97 l 93 119 b 88 60 89 97 88 83 b 93 0 88 38 89 21 z "},"-":{"ha":486,"x_min":0,"x_max":0,"o":"m 415 308 b 422 369 421 328 422 351 b 415 432 422 389 421 413 l 71 432 b 64 369 65 413 64 389 b 71 308 64 351 65 328 z "},"=":{"ha":736,"x_min":0,"x_max":0,"o":"m 658 214 b 664 275 663 233 664 257 b 658 338 664 294 663 318 l 78 338 b 72 275 74 318 72 294 b 78 214 72 257 74 233 z m 658 482 b 664 542 663 500 664 524 b 658 606 664 561 663 585 l 78 606 b 72 542 74 585 72 561 b 78 482 72 524 74 500 z "},"×":{"ha":736,"x_min":0,"x_max":0,"o":"m 326 278 l 367 319 l 410 278 l 546 140 b 600 176 565 147 585 161 b 636 229 615 192 626 208 l 499 367 b 454 407 486 379 468 394 b 499 450 468 421 486 436 l 636 586 b 599 640 626 607 614 625 b 546 676 583 656 565 668 l 410 538 b 367 494 397 525 382 508 b 326 539 353 508 339 525 l 189 676 b 136 640 169 668 151 656 b 100 586 119 624 108 606 l 238 450 l 279 407 b 238 365 265 393 250 379 l 100 229 b 136 176 108 208 122 190 b 189 139 151 163 168 149 z "},"÷":{"ha":736,"x_min":0,"x_max":0,"o":"m 283 654 b 296 596 283 635 289 610 b 368 579 311 585 342 579 b 440 596 393 579 426 586 b 453 654 447 610 453 635 b 440 714 453 674 447 699 b 368 731 425 724 393 731 b 296 714 342 731 313 724 b 283 654 289 699 283 674 z m 283 160 b 296 100 283 139 289 115 b 368 83 311 90 342 83 b 440 100 393 83 426 90 b 453 160 447 115 453 139 b 440 218 453 178 447 204 b 368 235 425 228 393 235 b 296 218 342 235 313 228 b 283 160 289 204 283 179 z m 658 347 b 664 408 663 365 664 389 b 658 471 664 428 663 450 l 78 471 b 72 408 74 450 72 428 b 78 347 72 389 74 365 z "},"¬":{"ha":736,"x_min":0,"x_max":0,"o":"m 71 478 b 65 415 67 457 65 435 b 71 354 65 397 67 372 l 460 354 b 526 356 479 354 504 356 b 525 290 526 335 525 310 l 525 160 b 592 154 549 156 568 154 b 657 160 615 154 638 156 l 657 468 l 649 478 z "},"μ":{"ha":769,"x_min":0,"x_max":0,"o":"m 658 686 b 586 692 638 689 611 692 b 515 686 560 692 535 689 l 515 194 b 372 111 478 143 429 111 b 250 250 299 111 250 163 l 250 686 b 178 692 229 689 204 692 b 108 686 153 692 128 689 l 108 -149 b 85 -275 108 -187 104 -240 b 174 -303 108 -293 139 -303 b 242 -207 231 -303 242 -267 l 242 25 b 356 -14 272 0 311 -14 b 532 81 432 -14 492 25 b 643 -10 550 35 586 0 b 697 63 667 4 689 36 b 658 194 667 90 658 140 z "},"%":{"ha":1260,"x_min":0,"x_max":0,"o":"m 1193 268 b 1125 494 1193 353 1181 439 b 974 553 1086 535 1036 553 b 824 494 914 553 863 535 b 756 268 768 439 756 353 b 824 40 756 182 769 97 b 974 -17 864 0 914 -17 b 1125 40 1036 -17 1086 0 b 1193 268 1181 97 1193 182 z m 879 268 b 975 457 879 368 896 457 b 1071 268 1054 457 1071 368 b 975 78 1071 168 1054 78 b 879 268 896 78 879 168 z m 504 682 b 436 908 504 767 492 851 b 285 965 397 949 347 965 b 135 908 224 965 174 949 b 67 682 79 851 67 767 b 135 454 67 594 79 510 b 285 396 174 414 224 396 b 436 454 347 396 397 414 b 504 682 492 510 504 594 z m 190 682 b 286 871 190 781 207 871 b 381 682 364 871 381 781 b 286 492 381 582 364 492 b 190 682 207 492 190 582 z m 297 0 b 439 0 324 -10 403 -11 l 961 949 b 821 949 936 958 857 960 z "},"#":{"ha":896,"x_min":0,"x_max":0,"o":"m 594 692 l 419 692 l 464 888 b 335 888 433 900 367 900 l 290 692 l 107 692 b 107 572 96 658 96 604 l 264 572 l 210 333 l 42 333 b 42 215 29 301 29 247 l 183 215 l 139 18 b 269 18 169 4 239 4 l 314 215 l 488 215 l 443 18 b 574 18 474 4 543 4 l 618 215 l 793 215 b 793 333 806 247 806 301 l 644 333 l 697 572 l 860 572 b 860 692 871 604 871 658 l 724 692 l 768 888 b 639 888 738 900 671 900 z m 393 572 l 568 572 l 514 333 l 340 333 z "},"*":{"ha":700,"x_min":0,"x_max":0,"o":"m 63 760 l 136 738 b 292 714 185 721 242 717 b 179 601 253 681 210 643 l 133 540 b 235 467 151 511 203 475 l 279 531 b 350 671 310 572 332 624 b 421 529 368 624 390 572 l 465 467 b 565 540 500 475 550 513 l 521 601 b 407 714 490 643 446 682 b 564 736 457 717 515 721 l 639 760 b 600 878 642 794 621 856 l 526 854 b 385 782 478 838 429 808 b 411 938 397 831 411 886 l 413 1015 b 288 1015 382 1028 317 1028 l 289 938 b 314 781 289 885 301 829 b 174 854 271 807 221 838 l 101 879 b 63 760 79 853 58 792 z "},"–":{"ha":738,"x_min":0,"x_max":0,"o":"m 647 310 b 653 367 651 328 653 349 b 647 426 653 386 651 407 l 90 426 b 85 367 86 407 85 386 b 90 310 85 349 86 328 z "},"—":{"ha":1110,"x_min":0,"x_max":0,"o":"m 999 310 b 1006 367 1004 328 1006 349 b 999 426 1006 386 1004 407 l 110 426 b 104 367 106 407 104 386 b 110 310 104 349 106 328 z "},"/":{"ha":586,"x_min":0,"x_max":0,"o":"m 10 -107 b 135 -154 46 -135 93 -151 l 574 1011 b 449 1057 538 1038 489 1054 z "},"\\":{"ha":586,"x_min":0,"x_max":0,"o":"m 453 -154 b 576 -107 493 -150 542 -133 l 138 1057 b 14 1011 96 1054 50 1039 z "},"|":{"ha":354,"x_min":0,"x_max":0,"o":"m 110 -196 b 178 -201 131 -200 160 -201 b 244 -196 199 -201 224 -200 l 244 1075 b 178 1082 224 1081 199 1082 b 110 1075 160 1082 131 1081 z "},"¦":{"ha":346,"x_min":0,"x_max":0,"o":"m 107 -196 b 174 -201 126 -200 156 -201 b 240 -196 194 -201 218 -200 l 240 342 b 174 349 218 347 194 349 b 107 342 156 349 126 347 z m 107 538 b 174 532 126 533 156 532 b 240 538 194 532 218 533 l 240 1075 b 174 1082 218 1081 194 1082 b 107 1075 156 1082 126 1081 z "},"¶":{"ha":932,"x_min":0,"x_max":0,"o":"m 399 83 b 369 -60 399 6 389 -35 b 265 -103 344 -92 310 -103 b 132 -74 222 -103 169 -87 b 97 -183 111 -100 97 -151 b 278 -217 136 -199 211 -217 b 482 -140 358 -217 435 -193 b 544 108 536 -81 544 1 l 544 942 l 536 950 b 378 956 475 953 435 956 b 58 654 193 956 58 861 b 372 349 58 451 192 349 l 399 349 z m 635 -185 b 708 -190 657 -189 688 -190 b 782 -185 732 -190 758 -189 l 782 824 b 839 822 800 822 818 822 l 893 822 b 893 949 903 850 903 919 l 643 949 l 635 940 z "},"{":{"ha":481,"x_min":0,"x_max":0,"o":"m 58 500 b 58 404 50 476 50 428 b 172 242 124 385 172 322 l 172 4 b 369 -222 172 -129 256 -203 l 442 -235 b 467 -135 461 -212 474 -164 l 399 -114 b 318 6 349 -97 318 -57 l 318 239 b 203 446 318 326 274 414 l 203 457 b 318 665 274 490 318 578 l 318 897 b 399 1017 318 960 349 1001 l 467 1039 b 442 1138 474 1067 461 1115 l 369 1125 b 172 899 256 1107 172 1032 l 172 663 b 58 500 172 581 124 519 z "},"}":{"ha":481,"x_min":0,"x_max":0,"o":"m 422 500 b 308 663 358 519 308 581 l 308 899 b 111 1125 308 1032 225 1107 l 40 1138 b 14 1039 21 1115 7 1067 l 83 1017 b 163 897 133 1001 163 960 l 163 665 b 278 457 163 578 208 490 l 278 446 b 163 239 208 414 163 326 l 163 6 b 83 -114 163 -57 133 -97 l 14 -135 b 40 -235 7 -164 21 -212 l 111 -222 b 308 4 225 -203 308 -129 l 308 242 b 422 404 308 322 358 385 b 422 500 432 428 432 476 z "},"(":{"ha":461,"x_min":0,"x_max":0,"o":"m 242 451 b 439 1074 242 667 301 894 b 353 1151 421 1115 388 1140 b 86 451 181 982 86 694 b 353 -250 86 207 181 -81 b 439 -172 388 -239 421 -214 b 242 451 301 7 242 235 z "},")":{"ha":461,"x_min":0,"x_max":0,"o":"m 219 451 b 22 -172 219 235 158 7 b 108 -250 40 -214 74 -239 b 374 451 281 -81 374 207 b 108 1151 374 694 281 982 b 22 1074 74 1140 40 1115 b 219 451 158 894 219 667 z "},"[":{"ha":478,"x_min":0,"x_max":0,"o":"m 429 -197 b 435 -154 433 -185 435 -167 b 424 -93 435 -133 428 -107 l 282 -89 l 282 1014 l 424 1018 b 435 1079 428 1032 435 1058 b 429 1122 435 1092 433 1110 l 147 1132 l 138 1124 l 138 -199 l 147 -207 z "},"]":{"ha":478,"x_min":0,"x_max":0,"o":"m 329 -207 l 339 -199 l 339 1124 l 329 1132 l 49 1122 b 43 1079 44 1110 43 1092 b 54 1018 43 1058 50 1032 l 196 1014 l 196 -89 l 54 -93 b 43 -154 50 -107 43 -133 b 49 -197 43 -167 44 -185 z "},"¤":{"ha":799,"x_min":0,"x_max":0,"o":"m 94 464 b 143 296 94 400 111 343 l 44 189 b 122 111 63 157 93 128 l 232 211 b 399 167 279 182 336 167 b 564 211 461 167 518 182 l 675 110 b 753 189 706 129 736 158 l 654 296 b 703 464 685 343 703 400 b 654 633 703 528 685 586 l 754 742 b 675 819 736 772 706 803 l 565 718 b 399 764 518 747 461 764 b 231 718 335 764 278 747 l 122 818 b 44 739 92 799 61 769 l 142 632 b 94 464 111 585 94 528 z m 240 464 b 399 654 240 567 296 654 b 558 464 501 654 558 567 b 399 275 558 363 501 275 b 240 464 296 275 240 364 z "},"$":{"ha":693,"x_min":0,"x_max":0,"o":"m 46 136 b 278 54 93 104 179 68 l 278 -54 b 335 -58 292 -57 321 -58 b 393 -54 351 -58 378 -57 l 393 51 b 639 276 546 64 639 151 b 456 497 639 386 560 460 l 321 547 b 225 635 260 568 225 589 b 347 725 225 692 274 725 b 563 671 411 725 493 703 b 615 785 593 696 615 742 b 399 844 558 811 485 836 l 399 956 b 340 961 383 960 357 961 b 283 956 326 961 297 960 l 283 842 b 78 625 157 821 78 735 b 249 422 78 525 142 463 l 388 372 b 489 263 450 350 489 311 b 354 169 489 201 429 169 b 103 247 256 169 168 211 b 46 136 74 228 47 175 z "},"¢":{"ha":650,"x_min":0,"x_max":0,"o":"m 285 -43 b 342 -47 299 -46 328 -47 b 400 -43 358 -47 385 -46 l 400 94 b 593 200 476 108 546 147 b 529 281 583 231 554 265 b 364 210 483 242 426 210 b 208 449 267 210 208 282 b 343 703 208 618 257 703 b 465 532 443 703 469 613 b 521 525 483 528 504 525 b 597 610 578 525 597 557 b 404 810 597 689 535 788 l 404 946 b 346 950 389 949 363 950 b 289 946 332 950 303 949 l 289 807 b 58 449 165 781 58 671 b 285 94 58 292 114 125 z "},"£":{"ha":735,"x_min":0,"x_max":0,"o":"m 319 369 l 319 372 b 554 371 397 371 475 371 b 554 481 564 403 564 450 b 299 479 458 481 374 479 b 250 663 279 540 250 599 b 393 797 250 749 313 797 b 583 721 451 797 526 768 b 658 815 621 733 654 778 b 382 918 607 863 508 918 b 106 671 192 918 106 785 b 161 479 106 600 138 540 b 81 481 133 479 106 481 b 81 371 71 447 71 401 l 186 371 b 118 189 186 297 149 233 l 96 154 b 76 93 81 133 76 114 b 94 -1 76 78 78 64 l 585 -1 b 681 69 638 -1 672 22 b 683 122 683 89 683 104 l 428 122 b 233 115 339 122 285 118 l 229 119 b 319 369 268 174 319 272 z "},"€":{"ha":786,"x_min":0,"x_max":0,"o":"m 689 715 b 756 806 721 735 747 774 b 460 918 669 876 563 918 b 144 601 260 918 172 779 l 35 601 b 29 551 31 582 29 568 b 35 503 29 533 31 521 l 135 503 b 133 450 133 485 133 468 b 135 393 133 431 133 411 l 35 393 b 29 343 31 374 29 361 b 35 294 29 325 31 313 l 144 294 b 460 -18 174 118 261 -18 b 756 94 563 -18 669 22 b 689 185 747 126 722 164 b 479 104 624 135 544 104 b 292 294 376 104 315 168 l 576 294 b 582 343 581 313 582 325 b 576 393 582 363 581 374 l 281 393 b 279 449 279 411 279 429 l 279 503 l 576 503 b 582 551 581 521 582 533 b 576 601 582 569 581 582 l 290 601 b 479 796 314 731 375 796 b 689 715 544 796 624 765 z "},"¥":{"ha":717,"x_min":0,"x_max":0,"o":"m 638 238 b 643 286 642 256 643 263 b 638 336 643 310 642 317 l 435 336 l 483 446 l 638 446 b 643 494 642 464 643 471 b 638 544 643 518 642 525 l 528 544 l 685 893 l 679 901 b 608 911 653 908 632 911 b 549 903 589 911 569 908 l 426 611 b 367 449 407 569 382 497 l 358 449 b 301 610 344 493 318 572 l 199 858 b 128 914 183 894 165 914 b 33 886 99 914 68 906 l 186 544 l 76 544 b 69 494 72 525 69 517 b 76 446 69 472 72 464 l 231 446 l 279 336 l 76 336 b 69 286 72 317 69 308 b 76 238 69 263 72 256 l 286 238 l 286 0 b 357 -6 307 -4 335 -6 b 428 0 381 -6 404 -4 l 428 238 z "},"@":{"ha":1318,"x_min":0,"x_max":0,"o":"m 921 572 b 678 668 865 625 775 668 b 394 314 494 668 394 511 b 615 7 394 128 476 7 b 808 99 689 7 760 47 b 976 13 840 46 899 13 b 1260 403 1119 13 1260 144 b 682 940 1260 733 1019 940 b 69 313 324 940 69 674 b 619 -261 69 -65 301 -261 b 949 -200 732 -261 851 -237 b 911 -99 949 -165 933 -122 b 629 -150 826 -133 731 -150 b 214 313 381 -150 214 11 b 682 833 214 611 399 833 b 1118 407 946 833 1118 665 b 981 122 1118 194 1049 122 b 919 218 939 122 919 149 z m 646 119 b 533 318 565 119 533 199 b 678 564 533 453 579 564 b 783 522 722 564 761 544 l 783 201 b 646 119 749 156 693 119 z "},"©":{"ha":1114,"x_min":0,"x_max":0,"o":"m 56 474 b 557 -26 56 190 274 -26 b 1058 474 839 -26 1058 190 b 557 975 1058 757 839 975 b 56 474 274 975 56 757 z m 176 474 b 557 874 176 693 336 874 b 939 474 778 874 939 693 b 557 75 939 254 778 75 b 176 474 336 75 176 254 z m 656 528 b 703 521 668 524 686 521 b 767 586 749 521 767 547 b 561 751 767 660 696 751 b 317 474 442 751 317 668 b 556 199 317 319 394 199 b 761 282 631 199 714 235 b 710 351 754 307 733 339 b 574 294 671 321 619 294 b 440 474 490 294 440 358 b 557 658 440 594 483 658 b 656 528 635 658 660 589 z "},"®":{"ha":824,"x_min":0,"x_max":0,"o":"m 47 668 b 411 304 47 464 207 304 b 775 668 615 304 775 464 b 411 1032 775 871 615 1032 b 47 668 207 1032 47 871 z m 143 668 b 411 946 143 821 258 946 b 681 668 565 946 681 821 b 411 392 681 515 565 392 b 143 668 258 392 143 515 z m 553 744 b 419 849 553 806 511 849 b 281 846 378 849 325 847 l 276 842 l 276 499 b 361 499 300 492 338 492 l 361 626 l 392 626 b 433 599 414 626 425 615 l 468 535 b 519 492 481 507 494 492 b 578 524 544 492 567 506 b 547 563 565 532 556 547 l 529 599 b 483 653 518 619 507 643 b 553 744 518 664 553 693 z m 361 783 l 414 783 b 465 739 450 783 465 763 b 410 693 465 714 449 693 b 361 692 399 693 379 693 z "},"^":{"ha":736,"x_min":0,"x_max":0,"o":"m 446 900 b 290 900 410 910 326 908 l 61 425 b 203 425 93 417 165 415 l 317 669 b 364 786 331 701 351 754 l 372 786 b 419 669 385 754 406 701 l 533 425 b 675 425 571 415 643 417 z "},"_":{"ha":736,"x_min":0,"x_max":0,"o":"m 736 -215 b 742 -160 740 -199 742 -183 b 736 -103 742 -136 740 -121 l 0 -103 b -7 -160 -6 -121 -7 -143 b 0 -215 -7 -178 -6 -199 z "},"§":{"ha":674,"x_min":0,"x_max":0,"o":"m 632 422 b 408 654 632 547 525 607 l 328 686 b 240 775 272 708 240 733 b 346 857 240 825 285 857 b 519 814 407 857 471 835 b 561 918 544 835 563 882 b 343 967 504 944 418 967 b 96 764 203 967 96 883 b 192 600 96 689 135 638 b 44 394 108 554 44 482 b 268 164 44 271 150 211 l 349 132 b 436 42 404 110 436 83 b 325 -40 436 -8 393 -40 b 138 10 250 -40 183 -12 b 92 -92 114 -8 90 -56 b 322 -150 150 -128 243 -150 b 581 53 474 -150 581 -67 b 485 217 581 126 540 178 b 632 422 568 263 632 333 z m 346 531 b 489 400 422 500 489 465 b 383 267 489 340 440 296 l 331 288 b 186 417 251 318 186 353 b 292 551 186 476 235 522 z "},"´":{"ha":553,"x_min":0,"x_max":0,"o":"m 171 806 b 235 747 182 779 208 754 l 472 932 b 371 1026 457 972 413 1013 z "},"`":{"ha":553,"x_min":0,"x_max":0,"o":"m 189 1026 b 89 932 147 1013 104 972 l 326 747 b 389 806 351 754 378 779 z "},"˜":{"ha":553,"x_min":0,"x_max":0,"o":"m 292 793 b 371 772 313 783 340 772 b 510 874 428 772 481 808 l 522 901 b 451 946 511 926 479 946 l 436 926 b 382 890 419 904 401 890 b 338 903 368 890 350 896 l 261 942 b 182 963 239 953 213 963 b 43 861 121 963 71 922 l 31 833 b 101 789 42 807 74 789 l 117 808 b 171 843 132 829 151 843 b 215 831 186 843 203 838 z "},"~":{"ha":814,"x_min":0,"x_max":0,"o":"m 383 494 b 265 522 343 511 303 522 b 74 400 181 522 117 478 l 56 368 b 140 313 68 336 110 315 l 167 343 b 250 388 189 371 217 388 b 321 371 272 388 297 382 l 431 321 b 549 293 469 304 511 293 b 740 415 633 293 697 338 l 758 447 b 674 503 746 479 704 501 l 647 472 b 564 428 625 444 597 428 b 492 444 542 428 517 435 z "},"¨":{"ha":553,"x_min":0,"x_max":0,"o":"m 328 850 b 339 796 328 833 332 813 b 406 779 354 786 383 779 b 472 796 429 779 458 786 b 483 850 481 811 483 833 b 472 906 483 867 481 889 b 406 922 457 915 429 922 b 339 906 383 922 354 915 b 328 850 332 889 328 867 z m 69 850 b 81 796 69 833 72 813 b 147 779 94 786 125 779 b 214 796 171 779 199 786 b 225 850 221 811 225 833 b 214 906 225 867 221 889 b 147 922 199 915 171 922 b 81 906 125 922 96 915 b 69 850 72 889 69 867 z "},"¸":{"ha":553,"x_min":0,"x_max":0,"o":"m 201 -103 b 226 -128 206 -112 215 -124 b 258 -121 236 -124 247 -121 b 318 -175 297 -121 318 -146 b 256 -229 318 -204 299 -229 b 186 -210 231 -229 204 -221 b 157 -282 171 -229 158 -256 b 267 -310 181 -297 224 -310 b 433 -172 363 -310 433 -254 b 304 -51 433 -103 381 -56 b 328 0 310 -35 321 -14 l 238 0 b 201 -103 225 -28 210 -74 z "},"ˆ":{"ha":553,"x_min":0,"x_max":0,"o":"m 408 758 b 478 822 432 767 464 790 l 342 997 b 221 996 308 1006 253 1007 l 74 811 b 140 751 90 781 115 761 l 279 885 z "},"¯":{"ha":553,"x_min":0,"x_max":0,"o":"m 472 799 b 478 857 476 818 478 833 b 472 914 478 881 476 894 l 82 914 b 75 856 76 894 75 878 b 82 799 75 833 76 818 z "},"æ":{"ha":1085,"x_min":0,"x_max":0,"o":"m 1008 297 b 1019 407 1017 336 1019 363 b 744 704 1019 572 925 704 b 550 615 660 704 596 669 b 368 700 513 671 450 700 b 86 636 276 700 164 671 b 128 532 88 600 104 554 b 347 585 200 561 276 585 b 460 463 418 585 460 549 l 460 407 b 326 417 415 414 368 417 b 60 188 175 417 60 346 b 265 -18 60 86 126 -18 b 514 97 372 -18 458 39 b 742 -18 561 19 638 -18 b 1000 60 838 -18 935 13 b 956 153 996 89 979 131 b 763 99 897 122 833 99 b 604 297 646 99 610 182 z m 296 96 b 203 197 236 96 203 140 b 335 317 203 272 251 317 b 458 310 374 317 418 315 b 475 192 461 265 467 226 b 296 96 424 126 354 96 z m 744 597 b 881 418 843 597 881 515 l 881 401 l 604 401 b 744 597 611 525 656 597 z "},"à":{"ha":704,"x_min":0,"x_max":0,"o":""},"á":{"ha":704,"x_min":0,"x_max":0,"o":"m 640 64 b 601 183 608 92 601 131 l 601 468 b 374 700 601 626 511 700 b 86 636 281 700 164 671 b 128 532 88 600 104 554 b 346 585 200 560 276 585 b 460 461 418 585 460 549 l 460 407 b 326 417 414 414 364 417 b 60 186 175 417 60 344 b 265 -18 60 88 126 -18 b 475 76 354 -18 425 28 b 586 -10 493 33 529 1 b 640 64 610 4 632 38 z m 296 96 b 203 197 236 96 203 140 b 335 317 203 272 251 317 b 460 311 374 317 418 315 l 460 179 b 296 96 410 124 349 96 z m 235 806 b 299 747 246 779 272 754 l 536 932 b 435 1026 521 972 476 1013 z "},"â":{"ha":704,"x_min":0,"x_max":0,"o":""},"ä":{"ha":704,"x_min":0,"x_max":0,"o":"m 640 64 b 601 183 608 92 601 131 l 601 468 b 374 700 601 626 511 700 b 86 636 281 700 164 671 b 128 532 88 600 104 554 b 346 585 200 560 276 585 b 460 461 418 585 460 549 l 460 407 b 326 417 414 414 364 417 b 60 186 175 417 60 344 b 265 -18 60 88 126 -18 b 475 76 354 -18 425 28 b 586 -10 493 33 529 1 b 640 64 610 4 632 38 z m 296 96 b 203 197 236 96 203 140 b 335 317 203 272 251 317 b 460 311 374 317 418 315 l 460 179 b 296 96 410 124 349 96 z m 392 850 b 403 796 392 833 396 813 b 469 779 418 786 447 779 b 536 796 493 779 522 786 b 547 850 544 811 547 833 b 536 906 547 867 544 889 b 469 922 521 915 493 922 b 403 906 447 922 418 915 b 392 850 396 889 392 867 z m 133 850 b 144 796 133 833 136 813 b 211 779 158 786 189 779 b 278 796 235 779 263 786 b 289 850 285 811 289 833 b 278 906 289 867 285 889 b 211 922 263 915 235 922 b 144 906 189 922 160 915 b 133 850 136 889 133 867 z "},"ã":{"ha":704,"x_min":0,"x_max":0,"o":""},"å":{"ha":704,"x_min":0,"x_max":0,"o":"m 640 64 b 601 183 608 92 601 131 l 601 468 b 374 700 601 626 511 700 b 86 636 281 700 164 671 b 128 532 88 600 104 554 b 346 585 200 560 276 585 b 460 461 418 585 460 549 l 460 407 b 326 417 414 414 364 417 b 60 186 175 417 60 344 b 265 -18 60 88 126 -18 b 475 76 354 -18 425 28 b 586 -10 493 33 529 1 b 640 64 610 4 632 38 z m 296 96 b 203 197 236 96 203 140 b 335 317 203 272 251 317 b 460 311 374 317 418 315 l 460 179 b 296 96 410 124 349 96 z m 172 906 b 340 749 172 819 242 749 b 508 906 439 749 508 819 b 340 1064 508 993 439 1064 b 172 906 242 1064 172 993 z m 271 906 b 340 982 271 949 300 982 b 410 906 381 982 410 949 b 340 831 410 863 381 831 b 271 906 300 831 271 863 z "},"ç":{"ha":654,"x_min":0,"x_max":0,"o":"m 271 -103 b 294 -128 274 -112 285 -124 b 328 -121 304 -124 317 -121 b 386 -175 367 -121 386 -146 b 325 -229 386 -204 368 -229 b 256 -210 300 -229 272 -221 b 226 -282 239 -229 228 -256 b 336 -310 250 -297 292 -310 b 503 -172 432 -310 503 -254 b 374 -51 503 -103 449 -56 b 389 -15 376 -40 383 -26 b 596 85 471 -6 543 32 b 535 169 589 115 561 154 b 367 100 488 133 431 100 b 210 339 267 100 210 172 b 349 593 210 508 261 593 b 471 421 450 593 474 511 b 531 415 490 417 507 415 b 603 494 582 415 603 446 b 351 704 603 590 521 704 b 61 339 206 704 61 596 b 300 -15 61 161 133 7 b 271 -103 289 -42 276 -78 z "},"è":{"ha":694,"x_min":0,"x_max":0,"o":""},"é":{"ha":694,"x_min":0,"x_max":0,"o":"m 617 297 b 626 407 624 336 626 363 b 351 704 626 572 531 704 b 61 342 158 704 61 549 b 347 -18 61 154 128 -18 b 608 60 444 -18 542 13 b 563 151 603 89 586 129 b 369 99 504 121 439 99 b 208 297 251 99 214 182 z m 350 597 b 489 419 450 597 489 517 l 489 401 l 208 401 b 350 597 215 524 261 597 z m 250 806 b 314 747 261 779 288 754 l 551 932 b 450 1026 536 972 492 1013 z "},"ê":{"ha":694,"x_min":0,"x_max":0,"o":""},"ë":{"ha":694,"x_min":0,"x_max":0,"o":"m 617 297 b 626 407 624 336 626 363 b 351 704 626 572 531 704 b 61 342 158 704 61 549 b 347 -18 61 154 128 -18 b 608 60 444 -18 542 13 b 563 151 603 89 586 129 b 369 99 504 121 439 99 b 208 297 251 99 214 182 z m 350 597 b 489 419 450 597 489 517 l 489 401 l 208 401 b 350 597 215 524 261 597 z m 406 850 b 417 796 406 833 410 813 b 483 779 432 786 461 779 b 550 796 507 779 536 786 b 561 850 558 811 561 833 b 550 906 561 867 558 889 b 483 922 535 915 507 922 b 417 906 461 922 432 915 b 406 850 410 889 406 867 z m 147 850 b 158 796 147 833 150 813 b 225 779 172 786 203 779 b 292 796 249 779 276 786 b 303 850 299 811 303 833 b 292 906 303 867 299 889 b 225 922 276 915 249 922 b 158 906 203 922 174 915 b 147 850 150 889 147 867 z "},"ħ":{"ha":760,"x_min":0,"x_max":0,"o":"m 253 929 b 176 1021 253 993 236 1021 l 121 1021 l 113 1013 l 113 886 l 15 888 b 8 839 11 869 8 857 b 15 789 8 821 11 807 l 113 790 l 113 0 b 182 -6 133 -4 157 -6 b 253 0 208 -6 233 -4 l 253 482 b 426 568 301 535 372 568 b 514 435 494 568 514 528 l 514 82 b 590 -10 514 22 533 -10 b 679 21 625 -10 658 4 b 657 147 663 54 657 99 l 657 469 b 472 697 657 597 603 697 b 253 606 390 697 311 658 l 253 792 l 475 789 b 481 839 479 807 481 821 b 475 888 481 857 479 869 l 253 885 z "},"ı":{"ha":376,"x_min":0,"x_max":0,"o":"m 271 567 b 158 690 271 643 228 690 l 139 690 b 51 685 119 690 86 689 b 44 632 47 665 44 649 b 51 581 44 614 47 599 l 67 581 b 128 508 113 581 128 558 l 128 0 b 200 -6 147 -4 174 -6 b 271 0 225 -6 251 -4 z "},"ĩ":{"ha":372,"x_min":0,"x_max":0,"o":"m 267 567 b 154 690 267 643 224 690 l 135 690 b 47 685 115 690 82 689 b 40 632 43 665 40 649 b 47 581 40 614 43 599 l 63 581 b 124 508 108 581 124 558 l 124 0 b 196 -6 143 -4 169 -6 b 267 0 221 -6 247 -4 z m 183 793 b 263 772 204 783 232 772 b 401 874 319 772 372 808 l 414 901 b 343 946 403 926 371 946 l 328 926 b 274 890 311 904 293 890 b 229 903 260 890 242 896 l 153 942 b 74 963 131 953 104 963 b -65 861 13 963 -37 922 l -78 833 b -7 789 -67 807 -35 789 l 8 808 b 63 843 24 829 43 843 b 107 831 78 843 94 838 z "},"ĳ":{"ha":758,"x_min":0,"x_max":0,"o":"m 271 567 b 158 690 271 643 228 690 l 139 690 b 51 685 119 690 86 689 b 44 632 47 665 44 649 b 51 581 44 614 47 599 l 67 581 b 128 508 113 581 128 558 l 128 0 b 200 -6 147 -4 174 -6 b 271 0 225 -6 251 -4 z m 85 876 b 97 815 85 857 89 832 b 174 797 113 804 146 797 b 250 815 199 797 236 804 b 263 876 258 832 263 857 b 250 939 263 896 258 922 b 174 956 235 949 199 956 b 97 939 146 956 114 949 b 85 876 89 922 85 897 z m 651 567 b 542 690 651 643 611 690 l 524 690 b 422 685 501 690 460 689 b 415 632 418 665 415 649 b 422 581 415 614 418 599 l 450 581 b 510 508 496 581 510 558 l 510 -44 b 410 -217 510 -140 488 -178 b 451 -304 414 -253 432 -286 b 651 25 640 -256 651 -157 z m 464 876 b 476 815 464 857 468 832 b 553 797 492 804 525 797 b 629 815 578 797 615 804 b 642 876 638 832 642 857 b 629 939 642 896 638 922 b 553 956 614 949 578 956 b 476 939 525 956 493 949 b 464 876 468 922 464 897 z "},"ì":{"ha":372,"x_min":0,"x_max":0,"o":"m 267 567 b 154 690 267 643 224 690 l 135 690 b 47 685 115 690 82 689 b 40 632 43 665 40 649 b 47 581 40 614 43 599 l 63 581 b 124 508 108 581 124 558 l 124 0 b 196 -6 143 -4 169 -6 b 267 0 221 -6 247 -4 z m 85 1026 b -15 932 43 1013 0 972 l 222 747 b 285 806 247 754 274 779 z "},"í":{"ha":372,"x_min":0,"x_max":0,"o":"m 267 567 b 154 690 267 643 224 690 l 135 690 b 47 685 115 690 82 689 b 40 632 43 665 40 649 b 47 581 40 614 43 599 l 63 581 b 124 508 108 581 124 558 l 124 0 b 196 -6 143 -4 169 -6 b 267 0 221 -6 247 -4 z m 64 806 b 128 747 75 779 101 754 l 365 932 b 264 1026 350 972 306 1013 z "},"î":{"ha":372,"x_min":0,"x_max":0,"o":"m 267 567 b 154 690 267 643 224 690 l 135 690 b 47 685 115 690 82 689 b 40 632 43 665 40 649 b 47 581 40 614 43 599 l 63 581 b 124 508 108 581 124 558 l 124 0 b 196 -6 143 -4 169 -6 b 267 0 221 -6 247 -4 z m 300 758 b 369 822 324 767 356 790 l 233 997 b 113 996 200 1006 144 1007 l -35 811 b 32 751 -18 781 7 761 l 171 885 z "},"ï":{"ha":372,"x_min":0,"x_max":0,"o":"m 267 567 b 154 690 267 643 224 690 l 135 690 b 47 685 115 690 82 689 b 40 632 43 665 40 649 b 47 581 40 614 43 599 l 63 581 b 124 508 108 581 124 558 l 124 0 b 196 -6 143 -4 169 -6 b 267 0 221 -6 247 -4 z m 219 850 b 231 796 219 833 224 813 b 297 779 246 786 275 779 b 364 796 321 779 350 786 b 375 850 372 811 375 833 b 364 906 375 867 372 889 b 297 922 349 915 321 922 b 231 906 275 922 246 915 b 219 850 224 889 219 867 z m -39 850 b -28 796 -39 833 -36 813 b 39 779 -14 786 17 779 b 106 796 63 779 90 786 b 117 850 113 811 117 833 b 106 906 117 867 113 889 b 39 922 90 915 63 922 b -28 906 17 922 -12 915 b -39 850 -36 889 -39 867 z "},"ĵ":{"ha":381,"x_min":0,"x_max":0,"o":"m 274 567 b 164 690 274 643 233 690 l 146 690 b 44 685 124 690 82 689 b 38 632 40 665 38 649 b 44 581 38 614 40 599 l 72 581 b 132 508 118 581 132 558 l 132 -44 b 32 -217 132 -140 110 -178 b 74 -304 36 -253 54 -286 b 274 25 263 -256 274 -157 z m 307 758 b 376 822 331 767 363 790 l 240 997 b 119 996 207 1006 151 1007 l -28 811 b 39 751 -11 781 14 761 l 178 885 z "},"ķ":{"ha":697,"x_min":0,"x_max":0,"o":"m 560 258 b 432 383 531 329 490 368 b 478 438 449 397 464 415 l 629 678 l 621 689 b 544 690 594 690 574 690 b 451 629 496 690 474 668 l 329 438 b 296 418 321 424 311 418 l 249 415 l 249 929 b 172 1021 249 993 232 1021 l 117 1021 l 108 1013 l 108 0 b 178 -6 129 -4 153 -6 b 249 0 204 -6 229 -4 l 249 296 b 313 299 271 297 292 299 b 431 207 376 299 401 279 l 486 71 b 578 -10 507 18 526 -10 b 674 35 614 -10 653 11 b 607 143 643 56 625 96 z m 449 -81 b 308 -99 406 -67 346 -74 b 326 -171 319 -119 326 -147 b 243 -304 326 -225 299 -268 b 290 -365 249 -332 267 -358 b 463 -153 396 -325 463 -247 b 449 -81 463 -128 456 -97 z "},"ĸ":{"ha":697,"x_min":0,"x_max":0,"o":"m 560 258 b 432 383 531 329 490 368 b 478 438 449 397 464 415 l 629 678 l 621 689 b 544 690 594 690 574 690 b 451 629 496 690 474 668 l 329 438 b 296 418 321 424 311 418 l 249 415 l 249 600 b 172 692 249 664 232 692 l 117 692 l 108 683 l 108 0 b 178 -6 129 -4 153 -6 b 249 0 204 -6 229 -4 l 249 296 b 313 299 271 297 292 299 b 431 207 376 299 401 279 l 486 71 b 578 -10 507 18 526 -10 b 674 35 614 -10 653 11 b 607 143 643 56 625 96 z "},"ŀ":{"ha":486,"x_min":0,"x_max":0,"o":"m 301 107 b 247 169 264 107 247 128 l 247 929 b 169 1021 247 993 229 1021 l 115 1021 l 106 1013 l 106 138 b 243 -6 106 42 153 -6 b 361 4 281 -6 329 -1 b 365 35 364 14 365 25 b 353 107 365 61 360 88 z m 335 492 b 344 426 335 476 338 442 b 418 408 361 415 392 408 b 490 426 442 408 475 415 b 500 492 497 442 500 476 b 490 556 500 507 497 542 b 418 574 474 567 442 574 b 344 556 392 574 361 567 b 335 492 338 542 335 507 z "},"ł":{"ha":460,"x_min":0,"x_max":0,"o":"m 342 107 b 286 169 304 107 286 128 l 286 497 l 408 561 b 407 669 417 597 415 639 l 396 675 l 286 617 l 286 929 b 208 1021 286 993 269 1021 l 156 1021 l 147 1013 l 147 544 l 38 488 b 39 379 29 451 31 410 l 50 374 l 147 424 l 147 138 b 283 -6 147 42 193 -6 b 401 4 321 -6 369 -1 b 404 35 404 14 404 25 b 393 107 404 61 400 88 z "},"ń":{"ha":758,"x_min":0,"x_max":0,"o":""},"ñ":{"ha":758,"x_min":0,"x_max":0,"o":"m 656 471 b 471 699 656 599 601 699 b 250 606 388 699 310 660 b 171 692 247 660 225 692 l 117 692 l 108 683 l 108 0 b 181 -6 129 -4 154 -6 b 251 0 206 -6 232 -4 l 251 482 b 426 568 300 536 371 568 b 513 435 493 568 513 528 l 513 82 b 589 -10 513 22 532 -10 b 679 21 624 -10 658 4 b 656 147 661 54 656 99 z m 401 793 b 481 772 422 783 450 772 b 619 874 538 772 590 808 l 632 901 b 561 946 621 926 589 946 l 546 926 b 492 890 529 904 511 890 b 447 903 478 890 460 896 l 371 942 b 292 963 349 953 322 963 b 153 861 231 963 181 922 l 140 833 b 211 789 151 807 183 789 l 226 808 b 281 843 242 829 261 843 b 325 831 296 843 313 838 z "},"œ":{"ha":1151,"x_min":0,"x_max":0,"o":"m 1075 297 b 1085 407 1082 336 1085 363 b 810 704 1085 572 990 704 b 589 585 706 704 633 658 b 361 704 544 657 472 704 b 160 628 279 704 211 679 b 61 343 86 554 61 457 b 160 58 61 229 86 131 b 361 -18 211 7 279 -18 b 586 94 471 -18 543 26 b 807 -18 626 26 694 -18 b 1067 61 903 -18 1000 13 b 1021 151 1061 89 1044 129 b 829 99 963 121 899 99 b 669 297 711 99 675 182 z m 210 343 b 361 594 210 471 242 594 b 514 343 481 594 514 471 b 361 92 514 214 481 92 b 210 343 242 92 210 214 z m 810 597 b 946 418 910 597 946 517 l 946 401 l 669 401 b 810 597 676 525 722 597 z "},"ò":{"ha":722,"x_min":0,"x_max":0,"o":""},"ó":{"ha":722,"x_min":0,"x_max":0,"o":"m 661 343 b 563 628 661 457 636 554 b 361 704 511 679 443 704 b 160 628 279 704 211 679 b 61 343 86 554 61 457 b 160 58 61 228 86 132 b 361 -18 211 7 279 -18 b 563 58 443 -18 511 7 b 661 343 636 132 661 228 z m 210 343 b 361 594 210 471 242 594 b 514 343 481 594 514 471 b 361 92 514 214 481 92 b 210 343 242 92 210 214 z m 256 806 b 319 747 267 779 293 754 l 557 932 b 456 1026 542 972 497 1013 z "},"ô":{"ha":722,"x_min":0,"x_max":0,"o":""},"õ":{"ha":722,"x_min":0,"x_max":0,"o":"m 661 343 b 563 628 661 457 636 554 b 361 704 511 679 443 704 b 160 628 279 704 211 679 b 61 343 86 554 61 457 b 160 58 61 228 86 132 b 361 -18 211 7 279 -18 b 563 58 443 -18 511 7 b 661 343 636 132 661 228 z m 210 343 b 361 594 210 471 242 594 b 514 343 481 594 514 471 b 361 92 514 214 481 92 b 210 343 242 92 210 214 z m 376 793 b 456 772 397 783 425 772 b 594 874 513 772 565 808 l 607 901 b 536 946 596 926 564 946 l 521 926 b 467 890 504 904 486 890 b 422 903 453 890 435 896 l 346 942 b 267 963 324 953 297 963 b 128 861 206 963 156 922 l 115 833 b 186 789 126 807 158 789 l 201 808 b 256 843 217 829 236 843 b 300 831 271 843 288 838 z "},"ö":{"ha":722,"x_min":0,"x_max":0,"o":""},"ø":{"ha":725,"x_min":0,"x_max":0,"o":"m 663 343 b 565 626 663 451 638 553 l 618 718 b 536 764 600 742 564 760 l 488 679 b 361 704 450 696 408 704 b 160 628 281 704 213 679 b 63 343 86 554 63 453 b 156 61 63 236 85 133 l 103 -32 b 185 -78 119 -54 156 -74 l 235 7 b 361 -18 272 -10 314 -18 b 564 58 444 -18 513 7 b 663 343 638 131 663 235 z m 525 343 b 363 88 525 217 490 88 b 289 106 333 88 310 93 l 499 504 b 525 343 518 458 525 400 z m 199 343 b 363 599 199 471 235 599 b 432 582 390 599 413 592 l 224 186 b 199 343 206 231 199 288 z "},"ř":{"ha":511,"x_min":0,"x_max":0,"o":""},"ŗ":{"ha":511,"x_min":0,"x_max":0,"o":"m 69 619 b 121 476 93 597 121 550 l 121 0 b 193 -6 140 -4 167 -6 b 264 0 218 -6 244 -4 l 264 453 b 413 558 293 510 338 558 b 469 551 432 557 451 557 b 504 688 494 592 504 649 b 431 696 478 693 456 696 b 249 572 338 696 281 643 b 122 696 229 638 188 682 b 69 619 99 681 76 646 z m 269 -81 b 129 -99 226 -67 167 -74 b 147 -171 140 -119 147 -147 b 64 -304 147 -225 119 -268 b 111 -365 69 -332 88 -358 b 283 -153 217 -325 283 -247 b 269 -81 283 -128 276 -97 z "},"ß":{"ha":871,"x_min":0,"x_max":0,"o":"m 146 0 b 218 -6 167 -4 196 -6 b 292 0 242 -6 269 -4 l 292 688 b 449 860 292 792 339 860 b 610 688 557 860 610 781 b 604 639 610 671 607 654 b 468 474 519 606 468 540 b 560 319 468 417 501 371 l 617 271 b 672 176 649 243 672 213 b 560 93 672 128 625 93 b 442 125 525 93 481 104 b 394 22 415 101 396 54 b 571 -18 447 -4 519 -18 b 825 178 722 -18 825 61 b 722 358 825 242 785 303 l 671 404 b 619 483 633 436 619 458 b 733 585 619 518 651 565 l 731 586 l 733 586 b 754 694 747 624 754 663 b 450 971 754 863 635 971 b 146 703 269 971 146 876 l 146 654 l 26 657 b 21 600 22 639 21 618 b 26 542 21 582 22 558 l 146 543 z "},"ù":{"ha":760,"x_min":0,"x_max":0,"o":""},"ú":{"ha":760,"x_min":0,"x_max":0,"o":"m 103 215 b 286 -12 103 88 157 -12 b 518 90 375 -12 457 32 b 635 -10 536 39 574 1 b 689 63 658 4 681 36 b 650 194 658 90 650 140 l 650 686 b 578 692 629 689 603 692 b 506 686 551 692 525 689 l 506 201 b 332 117 456 149 386 117 b 246 250 264 117 246 157 l 246 604 b 169 694 246 664 225 694 b 79 664 135 694 100 682 b 103 539 97 632 103 588 z m 267 806 b 331 747 278 779 304 754 l 568 932 b 467 1026 553 972 508 1013 z "},"û":{"ha":760,"x_min":0,"x_max":0,"o":""},"ü":{"ha":760,"x_min":0,"x_max":0,"o":"m 103 215 b 286 -12 103 88 157 -12 b 518 90 375 -12 457 32 b 635 -10 536 39 574 1 b 689 63 658 4 681 36 b 650 194 658 90 650 140 l 650 686 b 578 692 629 689 603 692 b 506 686 551 692 525 689 l 506 201 b 332 117 456 149 386 117 b 246 250 264 117 246 157 l 246 604 b 169 694 246 664 225 694 b 79 664 135 694 100 682 b 103 539 97 632 103 588 z m 424 850 b 435 796 424 833 428 813 b 501 779 450 786 479 779 b 568 796 525 779 554 786 b 579 850 576 811 579 833 b 568 906 579 867 576 889 b 501 922 553 915 525 922 b 435 906 479 922 450 915 b 424 850 428 889 424 867 z m 165 850 b 176 796 165 833 168 813 b 243 779 190 786 221 779 b 310 796 267 779 294 786 b 321 850 317 811 321 833 b 310 906 321 867 317 889 b 243 922 294 915 267 922 b 176 906 221 922 192 915 b 165 850 168 889 165 867 z "},"ý":{"ha":650,"x_min":0,"x_max":0,"o":""},"ÿ":{"ha":650,"x_min":0,"x_max":0,"o":"m 633 674 l 629 682 b 554 692 606 689 581 692 b 493 686 535 692 511 690 l 340 99 b 328 108 333 99 331 100 b 276 313 315 161 296 249 l 182 632 b 110 696 168 682 144 696 b 22 675 86 696 56 689 l 206 68 b 313 -7 222 11 256 -6 l 308 -24 b 142 -196 276 -129 235 -196 b 39 -178 104 -196 61 -186 b 7 -281 19 -200 4 -247 b 140 -303 36 -292 97 -303 b 450 22 325 -303 389 -189 z m 375 850 b 386 796 375 833 379 813 b 453 779 401 786 431 779 b 519 796 476 779 506 786 b 531 850 528 811 531 833 b 519 906 531 867 528 889 b 453 922 504 915 476 922 b 386 906 431 922 401 915 b 375 850 379 889 375 867 z m 117 850 b 128 796 117 833 119 813 b 194 779 142 786 172 779 b 261 796 218 779 246 786 b 272 850 268 811 272 833 b 261 906 272 867 268 889 b 194 922 246 915 218 922 b 128 906 172 922 143 915 b 117 850 119 889 117 867 z "},"ð":{"ha":718,"x_min":0,"x_max":0,"o":"m 154 794 b 207 718 160 767 185 733 l 344 814 b 451 653 393 764 431 710 b 351 676 421 667 386 676 b 157 603 271 676 207 650 b 58 335 89 535 58 449 b 157 58 58 229 83 132 b 358 -18 208 7 276 -18 b 560 58 440 -18 508 7 b 658 340 633 132 658 232 b 449 886 658 561 585 750 l 550 956 b 499 1031 546 982 519 1015 l 378 947 b 219 1039 331 983 278 1014 b 163 947 193 1024 168 982 b 274 876 200 928 239 904 z m 511 340 b 358 90 511 213 478 90 b 207 333 239 90 207 211 b 360 569 207 464 243 569 b 489 528 408 569 453 553 b 511 340 503 479 511 421 z "},"þ":{"ha":733,"x_min":0,"x_max":0,"o":"m 672 356 b 433 697 672 556 586 697 b 247 619 358 697 293 664 l 247 929 b 169 1021 247 993 231 1021 l 117 1021 l 108 1013 l 108 -290 l 117 -299 l 169 -299 b 247 -207 231 -299 247 -271 l 247 33 b 408 -12 296 6 350 -12 b 672 356 535 -12 672 97 z m 400 578 b 526 350 467 578 526 514 b 386 103 526 181 464 103 b 247 153 339 103 290 125 l 247 488 b 400 578 290 550 350 578 z "},"Æ":{"ha":1217,"x_min":0,"x_max":0,"o":"m 357 229 l 481 229 b 557 231 492 229 533 231 l 557 90 b 640 -1 557 33 589 -1 l 1053 -1 b 1147 68 1106 -1 1140 21 b 1151 125 1151 88 1151 113 l 790 125 b 699 121 754 125 725 124 b 700 193 699 147 700 168 l 700 419 b 786 418 732 418 765 418 l 1049 418 b 1056 479 1054 438 1056 463 b 1049 540 1056 496 1054 521 l 786 540 b 700 539 765 540 732 539 l 700 733 b 699 824 700 769 699 788 b 786 824 731 822 765 824 l 1117 824 b 1129 890 1125 846 1129 874 b 1124 949 1129 907 1128 926 l 565 949 b 476 935 539 949 500 946 l 21 11 l 26 3 b 99 -7 46 -3 72 -7 b 171 -1 122 -7 150 -6 l 283 231 b 357 229 306 231 346 229 z m 463 601 b 550 803 490 660 524 738 l 557 803 l 557 350 b 482 351 533 350 492 351 l 397 351 b 340 350 388 351 361 350 z "},"À":{"ha":849,"x_min":0,"x_max":0,"o":"m 322 229 l 513 229 b 596 231 524 229 572 231 l 647 68 b 735 -10 665 7 689 -10 b 821 10 767 -10 800 -4 l 510 949 b 426 954 489 953 450 954 b 342 949 403 954 364 953 l 28 10 l 32 3 b 104 -7 51 -3 78 -7 b 168 -1 126 -7 150 -6 l 242 231 b 322 229 265 231 311 229 z m 360 601 b 414 803 375 653 400 740 l 421 803 b 494 551 440 729 469 632 l 558 350 b 489 351 536 350 499 351 l 350 351 b 279 350 339 351 301 350 z m 303 1253 b 239 1136 275 1233 244 1182 l 542 1011 b 585 1086 565 1026 579 1060 z "},"Á":{"ha":849,"x_min":0,"x_max":0,"o":"m 322 229 l 513 229 b 596 231 524 229 572 231 l 647 68 b 735 -10 665 7 689 -10 b 821 10 767 -10 800 -4 l 510 949 b 426 954 489 953 450 954 b 342 949 403 954 364 953 l 28 10 l 32 3 b 104 -7 51 -3 78 -7 b 168 -1 126 -7 150 -6 l 242 231 b 322 229 265 231 311 229 z m 360 601 b 414 803 375 653 400 740 l 421 803 b 494 551 440 729 469 632 l 558 350 b 489 351 536 350 499 351 l 350 351 b 279 350 339 351 301 350 z m 286 1086 b 329 1011 290 1061 307 1025 l 632 1136 b 568 1253 626 1182 596 1233 z "},"Â":{"ha":849,"x_min":0,"x_max":0,"o":"m 322 229 l 513 229 b 596 231 524 229 572 231 l 647 68 b 735 -10 665 7 689 -10 b 821 10 767 -10 800 -4 l 510 949 b 426 954 489 953 450 954 b 342 949 403 954 364 953 l 28 10 l 32 3 b 104 -7 51 -3 78 -7 b 168 -1 126 -7 150 -6 l 242 231 b 322 229 265 231 311 229 z m 360 601 b 414 803 375 653 400 740 l 421 803 b 494 551 440 729 469 632 l 558 350 b 489 351 536 350 499 351 l 350 351 b 279 350 339 351 301 350 z m 582 1024 b 644 1086 603 1031 635 1054 l 489 1233 b 361 1233 454 1240 397 1240 l 203 1076 b 265 1013 211 1049 243 1021 l 425 1128 z "},"Ã":{"ha":849,"x_min":0,"x_max":0,"o":"m 322 229 l 513 229 b 596 231 524 229 572 231 l 647 68 b 735 -10 665 7 689 -10 b 821 10 767 -10 800 -4 l 510 949 b 426 954 489 953 450 954 b 342 949 403 954 364 953 l 28 10 l 32 3 b 104 -7 51 -3 78 -7 b 168 -1 126 -7 150 -6 l 242 231 b 322 229 265 231 311 229 z m 360 601 b 414 803 375 653 400 740 l 421 803 b 494 551 440 729 469 632 l 558 350 b 489 351 536 350 499 351 l 350 351 b 279 350 339 351 301 350 z m 442 1050 b 524 1029 464 1040 492 1029 b 665 1131 582 1029 636 1065 l 678 1157 b 606 1201 665 1182 633 1200 l 589 1182 b 535 1147 572 1160 554 1147 b 489 1160 519 1147 501 1153 l 411 1196 b 329 1218 389 1207 361 1218 b 188 1117 268 1218 214 1178 l 175 1089 b 247 1046 186 1064 219 1046 l 264 1065 b 318 1100 279 1086 299 1100 b 364 1088 335 1100 351 1093 z "},"Ä":{"ha":849,"x_min":0,"x_max":0,"o":"m 322 229 l 513 229 b 596 231 524 229 572 231 l 647 68 b 735 -10 665 7 689 -10 b 821 10 767 -10 800 -4 l 510 949 b 426 954 489 953 450 954 b 342 949 403 954 364 953 l 28 10 l 32 3 b 104 -7 51 -3 78 -7 b 168 -1 126 -7 150 -6 l 242 231 b 322 229 265 231 311 229 z m 360 601 b 414 803 375 653 400 740 l 421 803 b 494 551 440 729 469 632 l 558 350 b 489 351 536 350 499 351 l 350 351 b 279 350 339 351 301 350 z m 574 1169 b 506 1153 543 1169 521 1163 b 492 1097 494 1136 492 1115 b 506 1039 492 1078 494 1056 b 574 1022 521 1028 543 1022 b 640 1039 600 1022 624 1028 b 653 1097 649 1056 653 1078 b 640 1153 653 1115 649 1136 b 574 1169 624 1163 600 1169 z m 279 1169 b 213 1153 251 1169 228 1163 b 200 1097 204 1136 200 1115 b 213 1039 200 1078 204 1056 b 279 1022 228 1028 251 1022 b 347 1039 307 1022 332 1028 b 361 1097 358 1056 361 1078 b 347 1153 361 1115 358 1136 b 279 1169 332 1163 307 1169 z "},"Å":{"ha":849,"x_min":0,"x_max":0,"o":"m 322 229 l 513 229 b 596 231 524 229 572 231 l 647 68 b 735 -10 665 7 689 -10 b 821 10 767 -10 800 -4 l 510 946 b 594 1085 563 972 594 1025 b 426 1242 594 1171 525 1242 b 258 1085 326 1242 258 1171 b 340 946 258 1025 289 974 l 28 10 l 32 3 b 104 -7 51 -3 78 -7 b 168 -1 126 -7 150 -6 l 242 231 b 322 229 265 231 311 229 z m 360 601 b 414 803 375 653 400 740 l 421 803 b 494 551 440 729 469 632 l 558 350 b 489 351 536 350 499 351 l 350 351 b 279 350 339 351 301 350 z m 356 1085 b 426 1160 356 1128 385 1160 b 496 1085 467 1160 496 1128 b 426 1008 496 1040 467 1008 b 356 1085 385 1008 356 1040 z "},"Ç":{"ha":839,"x_min":0,"x_max":0,"o":"m 364 -103 b 389 -128 368 -112 378 -124 b 421 -121 397 -124 410 -121 b 481 -175 460 -121 481 -146 b 418 -229 481 -204 461 -229 b 349 -210 393 -229 365 -221 b 319 -282 333 -229 321 -256 b 429 -310 343 -297 386 -310 b 596 -172 525 -310 596 -254 b 467 -51 596 -103 543 -56 b 482 -15 469 -40 476 -26 b 776 121 603 -1 710 54 b 703 217 767 156 735 196 b 454 111 622 150 540 111 b 224 469 310 111 224 240 b 446 847 224 715 300 847 b 639 621 596 847 642 726 b 700 613 663 615 678 613 b 783 696 760 613 783 646 b 449 967 783 836 656 967 b 68 469 244 967 68 815 b 393 -15 68 235 156 6 b 364 -103 382 -43 371 -78 z "},"È":{"ha":786,"x_min":0,"x_max":0,"o":"m 721 125 l 361 125 b 269 121 325 125 297 124 b 271 192 269 147 271 167 l 271 419 b 357 418 303 418 336 418 l 618 418 b 625 479 624 438 625 463 b 618 540 625 496 624 521 l 357 540 b 271 539 336 540 303 539 l 271 733 b 269 824 271 769 269 788 b 357 824 301 822 336 824 l 686 824 b 697 890 694 846 697 874 b 693 949 697 907 697 926 l 135 949 l 125 940 l 125 90 b 210 -1 125 33 157 -1 l 622 -1 b 717 68 675 -1 708 21 b 721 125 721 88 721 113 z m 292 1253 b 228 1136 264 1233 233 1182 l 531 1011 b 574 1086 554 1026 568 1060 z "},"É":{"ha":786,"x_min":0,"x_max":0,"o":"m 721 125 l 361 125 b 269 121 325 125 297 124 b 271 192 269 147 271 167 l 271 419 b 357 418 303 418 336 418 l 618 418 b 625 479 624 438 625 463 b 618 540 625 496 624 521 l 357 540 b 271 539 336 540 303 539 l 271 733 b 269 824 271 769 269 788 b 357 824 301 822 336 824 l 686 824 b 697 890 694 846 697 874 b 693 949 697 907 697 926 l 135 949 l 125 940 l 125 90 b 210 -1 125 33 157 -1 l 622 -1 b 717 68 675 -1 708 21 b 721 125 721 88 721 113 z m 275 1086 b 318 1011 279 1061 296 1025 l 621 1136 b 557 1253 615 1182 585 1233 z "},"Ê":{"ha":786,"x_min":0,"x_max":0,"o":"m 721 125 l 361 125 b 269 121 325 125 297 124 b 271 192 269 147 271 167 l 271 419 b 357 418 303 418 336 418 l 618 418 b 625 479 624 438 625 463 b 618 540 625 496 624 521 l 357 540 b 271 539 336 540 303 539 l 271 733 b 269 824 271 769 269 788 b 357 824 301 822 336 824 l 686 824 b 697 890 694 846 697 874 b 693 949 697 907 697 926 l 135 949 l 125 940 l 125 90 b 210 -1 125 33 157 -1 l 622 -1 b 717 68 675 -1 708 21 b 721 125 721 88 721 113 z m 571 1024 b 633 1086 592 1031 624 1054 l 478 1233 b 350 1233 443 1240 386 1240 l 192 1076 b 254 1013 200 1049 232 1021 l 414 1128 z "},"Ë":{"ha":786,"x_min":0,"x_max":0,"o":"m 721 125 l 361 125 b 269 121 325 125 297 124 b 271 192 269 147 271 167 l 271 419 b 357 418 303 418 336 418 l 618 418 b 625 479 624 438 625 463 b 618 540 625 496 624 521 l 357 540 b 271 539 336 540 303 539 l 271 733 b 269 824 271 769 269 788 b 357 824 301 822 336 824 l 686 824 b 697 890 694 846 697 874 b 693 949 697 907 697 926 l 135 949 l 125 940 l 125 90 b 210 -1 125 33 157 -1 l 622 -1 b 717 68 675 -1 708 21 b 721 125 721 88 721 113 z m 563 1169 b 494 1153 532 1169 510 1163 b 481 1097 483 1136 481 1115 b 494 1039 481 1078 483 1056 b 563 1022 510 1028 532 1022 b 629 1039 589 1022 613 1028 b 642 1097 638 1056 642 1078 b 629 1153 642 1115 638 1136 b 563 1169 613 1163 589 1169 z m 268 1169 b 201 1153 240 1169 217 1163 b 189 1097 193 1136 189 1115 b 201 1039 189 1078 193 1056 b 268 1022 217 1028 240 1022 b 336 1039 296 1022 321 1028 b 350 1097 347 1056 350 1078 b 336 1153 350 1115 347 1136 b 268 1169 321 1163 296 1169 z "},"Ì":{"ha":408,"x_min":0,"x_max":0,"o":"m 131 0 b 204 -6 151 -4 182 -6 b 278 0 226 -6 256 -4 l 278 949 b 204 954 256 953 226 954 b 131 949 182 954 151 953 z m 81 1253 b 17 1136 53 1233 22 1182 l 319 1011 b 363 1086 343 1026 357 1060 z "},"Í":{"ha":408,"x_min":0,"x_max":0,"o":"m 131 0 b 204 -6 151 -4 182 -6 b 278 0 226 -6 256 -4 l 278 949 b 204 954 256 953 226 954 b 131 949 182 954 151 953 z m 64 1086 b 107 1011 68 1061 85 1025 l 410 1136 b 346 1253 404 1182 374 1233 z "},"Ĩ":{"ha":408,"x_min":0,"x_max":0,"o":"m 131 0 b 204 -6 151 -4 182 -6 b 278 0 226 -6 256 -4 l 278 949 b 204 954 256 953 226 954 b 131 949 182 954 151 953 z m 219 1050 b 301 1029 242 1040 269 1029 b 443 1131 360 1029 414 1065 l 456 1157 b 383 1201 443 1182 411 1200 l 367 1182 b 313 1147 350 1160 332 1147 b 267 1160 297 1147 279 1153 l 189 1196 b 107 1218 167 1207 139 1218 b -35 1117 46 1218 -8 1178 l -47 1089 b 25 1046 -36 1064 -3 1046 l 42 1065 b 96 1100 57 1086 76 1100 b 142 1088 113 1100 129 1093 z "},"Î":{"ha":408,"x_min":0,"x_max":0,"o":"m 131 0 b 204 -6 151 -4 182 -6 b 278 0 226 -6 256 -4 l 278 949 b 204 954 256 953 226 954 b 131 949 182 954 151 953 z m 360 1024 b 422 1086 381 1031 413 1054 l 267 1233 b 139 1233 232 1240 175 1240 l -19 1076 b 43 1013 -11 1049 21 1021 l 203 1128 z "},"Ï":{"ha":408,"x_min":0,"x_max":0,"o":"m 131 0 b 204 -6 151 -4 182 -6 b 278 0 226 -6 256 -4 l 278 949 b 204 954 256 953 226 954 b 131 949 182 954 151 953 z m 351 1169 b 283 1153 321 1169 299 1163 b 269 1097 272 1136 269 1115 b 283 1039 269 1078 272 1056 b 351 1022 299 1028 321 1022 b 418 1039 378 1022 401 1028 b 431 1097 426 1056 431 1078 b 418 1153 431 1115 426 1136 b 351 1169 401 1163 378 1169 z m 57 1169 b -10 1153 29 1169 6 1163 b -22 1097 -18 1136 -22 1115 b -10 1039 -22 1078 -18 1056 b 57 1022 6 1028 29 1022 b 125 1039 85 1022 110 1028 b 139 1097 136 1056 139 1078 b 125 1153 139 1115 136 1136 b 57 1169 110 1163 85 1169 z "},"Ĳ":{"ha":1028,"x_min":0,"x_max":0,"o":"m 131 0 b 204 -6 151 -4 182 -6 b 278 0 226 -6 256 -4 l 278 949 b 204 954 256 953 226 954 b 131 949 182 954 151 953 z m 475 156 b 419 44 446 125 426 85 b 636 -14 481 7 564 -14 b 919 346 876 -14 919 142 l 919 949 b 847 954 897 953 869 954 b 772 949 825 954 794 953 l 772 325 b 624 110 772 176 738 110 b 475 156 572 110 517 131 z "},"Ĵ":{"ha":622,"x_min":0,"x_max":0,"o":"m 69 156 b 14 44 40 125 21 85 b 231 -14 75 7 158 -14 b 514 346 471 -14 514 142 l 514 949 b 442 954 492 953 464 954 b 367 949 419 954 389 953 l 367 325 b 218 110 367 176 332 110 b 69 156 167 110 111 131 z m 597 1024 b 660 1086 618 1031 650 1054 l 504 1233 b 376 1233 469 1240 413 1240 l 218 1076 b 281 1013 226 1049 258 1021 l 440 1128 z "},"Ł":{"ha":719,"x_min":0,"x_max":0,"o":"m 282 860 b 200 954 282 925 260 954 l 143 954 l 135 946 l 135 518 l 26 481 b 29 368 18 444 19 399 l 39 363 l 135 396 l 135 90 b 221 -1 135 31 169 -1 l 582 -1 b 678 69 635 -1 671 22 b 682 128 682 88 682 113 l 406 128 b 282 122 368 128 325 126 l 282 440 l 540 525 b 538 638 547 561 547 608 l 526 643 l 282 560 z "},"Ŀ":{"ha":711,"x_min":0,"x_max":0,"o":"m 397 128 b 274 122 360 128 317 126 l 274 860 b 190 954 274 925 251 954 l 135 954 l 125 946 l 125 90 b 211 -1 125 31 161 -1 l 574 -1 b 669 69 626 -1 661 22 b 674 128 672 88 674 113 z m 468 492 b 478 426 468 476 471 442 b 551 408 494 415 525 408 b 624 426 575 408 608 415 b 633 492 631 442 633 476 b 624 556 633 507 631 542 b 551 574 607 567 575 574 b 478 556 525 574 494 567 b 468 492 471 542 468 507 z "},"Ń":{"ha":944,"x_min":0,"x_max":0,"o":"m 810 954 l 761 954 b 682 863 701 954 682 928 l 682 517 b 693 167 682 421 686 278 l 688 165 b 596 367 661 222 631 294 l 303 949 b 214 954 274 953 233 954 b 126 947 196 954 150 951 l 126 0 b 196 -6 150 -4 176 -6 b 264 0 215 -6 239 -4 l 264 433 b 251 774 264 538 257 678 l 257 775 b 344 582 282 717 311 651 l 640 0 b 729 -6 669 -4 711 -6 b 818 1 747 -6 794 -3 l 818 947 z m 336 1086 b 379 1011 340 1061 357 1025 l 682 1136 b 618 1253 676 1182 646 1233 z "},"Ñ":{"ha":944,"x_min":0,"x_max":0,"o":"m 810 954 l 761 954 b 682 863 701 954 682 928 l 682 517 b 693 167 682 421 686 278 l 688 165 b 596 367 661 222 631 294 l 303 949 b 214 954 274 953 233 954 b 126 947 196 954 150 951 l 126 0 b 196 -6 150 -4 176 -6 b 264 0 215 -6 239 -4 l 264 433 b 251 774 264 538 257 678 l 257 775 b 344 582 282 717 311 651 l 640 0 b 729 -6 669 -4 711 -6 b 818 1 747 -6 794 -3 l 818 947 z m 492 1050 b 574 1029 514 1040 542 1029 b 715 1131 632 1029 686 1065 l 728 1157 b 656 1201 715 1182 683 1200 l 639 1182 b 585 1147 622 1160 604 1147 b 539 1160 569 1147 551 1153 l 461 1196 b 379 1218 439 1207 411 1218 b 238 1117 318 1218 264 1178 l 225 1089 b 297 1046 236 1064 269 1046 l 314 1065 b 368 1100 329 1086 349 1100 b 414 1088 385 1100 401 1093 z "},"Œ":{"ha":1244,"x_min":0,"x_max":0,"o":"m 1185 125 l 825 125 b 732 122 789 125 760 124 b 733 192 732 149 733 167 l 733 419 b 821 418 765 418 800 418 l 1082 418 b 1089 479 1088 438 1089 463 b 1082 540 1089 496 1088 521 l 821 540 b 733 539 800 540 765 539 l 733 733 b 732 824 733 769 732 788 b 821 824 765 822 800 824 l 1150 824 b 1161 890 1158 846 1161 874 b 1157 949 1161 907 1161 926 l 633 949 b 458 967 582 956 517 967 b 217 883 346 967 275 933 b 68 475 108 789 68 625 b 217 65 68 324 108 160 b 458 -18 275 15 346 -18 b 636 -1 519 -18 583 -8 l 1086 -1 b 1181 69 1139 -1 1172 22 b 1185 125 1185 88 1185 113 z m 458 100 b 222 475 264 100 222 307 b 458 849 222 643 264 849 b 590 831 501 849 547 840 l 590 118 b 458 100 549 107 501 100 z "},"Ò":{"ha":914,"x_min":0,"x_max":0,"o":"m 224 475 b 457 849 224 643 263 849 b 689 475 650 849 689 643 b 457 100 689 307 650 100 b 224 475 263 100 224 307 z m 68 475 b 217 65 68 324 107 160 b 457 -18 274 15 346 -18 b 697 65 568 -18 640 15 b 844 475 807 160 844 324 b 697 883 844 625 807 789 b 457 967 640 933 568 967 b 217 883 346 967 274 933 b 68 475 107 789 68 625 z m 333 1253 b 269 1136 306 1233 275 1182 l 572 1011 b 615 1086 596 1026 610 1060 z "},"Ó":{"ha":914,"x_min":0,"x_max":0,"o":"m 224 475 b 457 849 224 643 263 849 b 689 475 650 849 689 643 b 457 100 689 307 650 100 b 224 475 263 100 224 307 z m 68 475 b 217 65 68 324 107 160 b 457 -18 274 15 346 -18 b 697 65 568 -18 640 15 b 844 475 807 160 844 324 b 697 883 844 625 807 789 b 457 967 640 933 568 967 b 217 883 346 967 274 933 b 68 475 107 789 68 625 z m 317 1086 b 360 1011 321 1061 338 1025 l 663 1136 b 599 1253 657 1182 626 1233 z "},"Ô":{"ha":914,"x_min":0,"x_max":0,"o":"m 224 475 b 457 849 224 643 263 849 b 689 475 650 849 689 643 b 457 100 689 307 650 100 b 224 475 263 100 224 307 z m 68 475 b 217 65 68 324 107 160 b 457 -18 274 15 346 -18 b 697 65 568 -18 640 15 b 844 475 807 160 844 324 b 697 883 844 625 807 789 b 457 967 640 933 568 967 b 217 883 346 967 274 933 b 68 475 107 789 68 625 z m 613 1024 b 675 1086 633 1031 665 1054 l 519 1233 b 392 1233 485 1240 428 1240 l 233 1076 b 296 1013 242 1049 274 1021 l 456 1128 z "},"Õ":{"ha":914,"x_min":0,"x_max":0,"o":"m 224 475 b 457 849 224 643 263 849 b 689 475 650 849 689 643 b 457 100 689 307 650 100 b 224 475 263 100 224 307 z m 68 475 b 217 65 68 324 107 160 b 457 -18 274 15 346 -18 b 697 65 568 -18 640 15 b 844 475 807 160 844 324 b 697 883 844 625 807 789 b 457 967 640 933 568 967 b 217 883 346 967 274 933 b 68 475 107 789 68 625 z m 469 1058 b 550 1038 490 1049 519 1038 b 690 1138 607 1038 661 1074 l 703 1165 b 631 1208 692 1189 660 1208 l 615 1189 b 561 1154 599 1168 581 1154 b 517 1167 547 1154 529 1160 l 439 1204 b 358 1225 417 1215 390 1225 b 218 1125 297 1225 247 1186 l 206 1097 b 278 1054 217 1072 250 1054 l 293 1074 b 347 1107 308 1093 328 1107 b 393 1094 363 1107 381 1101 z "},"Ö":{"ha":914,"x_min":0,"x_max":0,"o":"m 224 475 b 457 849 224 643 263 849 b 689 475 650 849 689 643 b 457 100 689 307 650 100 b 224 475 263 100 224 307 z m 68 475 b 217 65 68 324 107 160 b 457 -18 274 15 346 -18 b 697 65 568 -18 640 15 b 844 475 807 160 844 324 b 697 883 844 625 807 789 b 457 967 640 933 568 967 b 217 883 346 967 274 933 b 68 475 107 789 68 625 z m 604 1169 b 536 1153 574 1169 551 1163 b 522 1097 525 1136 522 1115 b 536 1039 522 1078 525 1056 b 604 1022 551 1028 574 1022 b 671 1039 631 1022 654 1028 b 683 1097 679 1056 683 1078 b 671 1153 683 1115 679 1136 b 604 1169 654 1163 631 1169 z m 310 1169 b 243 1153 282 1169 258 1163 b 231 1097 235 1136 231 1115 b 243 1039 231 1078 235 1056 b 310 1022 258 1028 282 1022 b 378 1039 338 1022 363 1028 b 392 1097 389 1056 392 1078 b 378 1153 392 1115 389 1136 b 310 1169 363 1163 338 1169 z "},"Ø":{"ha":915,"x_min":0,"x_max":0,"o":"m 68 475 b 192 89 68 335 103 186 l 131 -21 b 228 -74 151 -46 193 -69 l 281 21 b 458 -18 328 -3 383 -18 b 699 65 569 -18 642 15 b 847 475 807 160 847 324 b 722 860 847 613 813 763 l 786 971 b 689 1024 765 996 722 1019 l 633 928 b 458 967 588 953 531 967 b 217 883 346 967 275 933 b 68 475 108 789 68 625 z m 219 475 b 458 851 219 644 263 851 b 574 818 506 851 543 839 l 264 224 b 219 475 229 297 219 390 z m 694 475 b 458 97 694 306 653 97 b 340 131 411 97 372 110 l 650 725 b 694 475 683 651 694 558 z "},"Ŕ":{"ha":833,"x_min":0,"x_max":0,"o":"m 749 669 b 433 954 749 854 626 954 b 135 950 339 954 239 951 l 126 940 l 126 0 b 199 -6 147 -4 176 -6 b 272 0 222 -6 250 -4 l 272 382 l 386 382 b 526 268 472 382 503 332 l 596 81 b 693 -10 618 21 638 -10 b 793 36 731 -10 774 7 b 731 136 761 61 744 99 l 669 299 b 571 417 650 353 617 400 b 749 669 672 449 749 542 z m 272 839 b 426 838 319 838 386 838 b 596 669 563 838 596 754 b 426 503 596 589 563 503 b 272 500 388 503 326 501 z m 275 1086 b 318 1011 279 1061 296 1025 l 621 1136 b 557 1253 615 1182 585 1233 z "},"Ř":{"ha":833,"x_min":0,"x_max":0,"o":"m 749 669 b 433 954 749 854 626 954 b 135 950 339 954 239 951 l 126 940 l 126 0 b 199 -6 147 -4 176 -6 b 272 0 222 -6 250 -4 l 272 382 l 386 382 b 526 268 472 382 503 332 l 596 81 b 693 -10 618 21 638 -10 b 793 36 731 -10 774 7 b 731 136 761 61 744 99 l 669 299 b 571 417 650 353 617 400 b 749 669 672 449 749 542 z m 272 839 b 426 838 319 838 386 838 b 596 669 563 838 596 754 b 426 503 596 589 563 503 b 272 500 388 503 326 501 z m 257 1239 b 193 1176 235 1232 204 1208 l 349 1029 b 476 1031 383 1022 442 1024 l 636 1188 b 572 1250 628 1215 596 1242 l 413 1136 z "},"Ŗ":{"ha":833,"x_min":0,"x_max":0,"o":"m 749 669 b 433 954 749 854 626 954 b 135 950 339 954 239 951 l 126 940 l 126 0 b 199 -6 147 -4 176 -6 b 272 0 222 -6 250 -4 l 272 382 l 386 382 b 526 268 472 382 503 332 l 596 81 b 693 -10 618 21 638 -10 b 793 36 731 -10 774 7 b 731 136 761 61 744 99 l 669 299 b 571 417 650 353 617 400 b 749 669 672 449 749 542 z m 272 839 b 426 838 319 838 386 838 b 596 669 563 838 596 754 b 426 503 596 589 563 503 b 272 500 388 503 326 501 z m 510 -81 b 369 -99 467 -67 407 -74 b 388 -171 381 -119 388 -147 b 304 -304 388 -225 360 -268 b 351 -365 310 -332 328 -358 b 524 -153 457 -325 524 -247 b 510 -81 524 -128 517 -97 z "},"Ù":{"ha":929,"x_min":0,"x_max":0,"o":"m 815 949 b 739 954 793 953 761 954 b 667 949 717 954 689 953 l 667 333 b 464 101 667 181 597 101 b 261 333 332 101 261 181 l 261 860 b 179 954 261 925 239 954 l 122 954 l 114 946 l 114 333 b 464 -18 114 103 251 -18 b 815 333 676 -18 815 103 z m 339 1253 b 275 1136 311 1233 281 1182 l 578 1011 b 621 1086 601 1026 615 1060 z "},"Ú":{"ha":929,"x_min":0,"x_max":0,"o":"m 815 949 b 739 954 793 953 761 954 b 667 949 717 954 689 953 l 667 333 b 464 101 667 181 597 101 b 261 333 332 101 261 181 l 261 860 b 179 954 261 925 239 954 l 122 954 l 114 946 l 114 333 b 464 -18 114 103 251 -18 b 815 333 676 -18 815 103 z m 322 1086 b 365 1011 326 1061 343 1025 l 668 1136 b 604 1253 663 1182 632 1233 z "},"Û":{"ha":929,"x_min":0,"x_max":0,"o":"m 815 949 b 739 954 793 953 761 954 b 667 949 717 954 689 953 l 667 333 b 464 101 667 181 597 101 b 261 333 332 101 261 181 l 261 860 b 179 954 261 925 239 954 l 122 954 l 114 946 l 114 333 b 464 -18 114 103 251 -18 b 815 333 676 -18 815 103 z m 618 1024 b 681 1086 639 1031 671 1054 l 525 1233 b 397 1233 490 1240 433 1240 l 239 1076 b 301 1013 247 1049 279 1021 l 461 1128 z "},"Ü":{"ha":929,"x_min":0,"x_max":0,"o":"m 815 949 b 739 954 793 953 761 954 b 667 949 717 954 689 953 l 667 333 b 464 101 667 181 597 101 b 261 333 332 101 261 181 l 261 860 b 179 954 261 925 239 954 l 122 954 l 114 946 l 114 333 b 464 -18 114 103 251 -18 b 815 333 676 -18 815 103 z m 610 1169 b 542 1153 579 1169 557 1163 b 528 1097 531 1136 528 1115 b 542 1039 528 1078 531 1056 b 610 1022 557 1028 579 1022 b 676 1039 636 1022 660 1028 b 689 1097 685 1056 689 1078 b 676 1153 689 1115 685 1136 b 610 1169 660 1163 636 1169 z m 315 1169 b 249 1153 288 1169 264 1163 b 236 1097 240 1136 236 1115 b 249 1039 236 1078 240 1056 b 315 1022 264 1028 288 1022 b 383 1039 343 1022 368 1028 b 397 1097 394 1056 397 1078 b 383 1153 397 1115 394 1136 b 315 1169 368 1163 343 1169 z "},"Ý":{"ha":693,"x_min":0,"x_max":0,"o":"m 417 631 b 356 454 401 590 371 510 l 349 454 b 290 628 332 511 310 579 l 181 894 b 101 958 163 939 142 958 b 8 932 72 958 40 950 l 272 307 l 272 0 b 346 -6 293 -4 324 -6 b 421 0 369 -6 397 -4 l 421 304 l 685 935 l 678 944 b 606 956 657 951 632 956 b 543 949 586 956 564 954 z m 211 1086 b 254 1011 215 1061 232 1025 l 557 1136 b 493 1253 551 1182 521 1233 z "},"Ð":{"ha":922,"x_min":0,"x_max":0,"o":"m 851 475 b 704 883 851 636 828 781 b 463 954 643 933 536 954 b 157 950 350 954 278 954 l 147 940 l 147 542 l 40 542 b 35 479 36 522 35 501 b 40 419 35 457 36 438 l 147 419 l 147 8 l 157 -1 b 463 -7 278 -4 350 -7 b 704 64 536 -7 643 14 b 851 475 829 167 851 313 z m 507 419 b 514 481 511 438 514 457 b 507 542 514 504 511 522 l 293 542 l 293 836 b 463 835 357 836 403 835 b 697 475 668 835 697 640 b 463 113 697 310 668 113 b 293 113 403 113 357 114 l 293 419 z "},"Þ":{"ha":793,"x_min":0,"x_max":0,"o":"m 126 0 b 199 -6 147 -4 178 -6 b 274 0 222 -6 251 -4 l 274 201 l 418 201 b 738 506 604 201 738 303 b 418 810 738 714 603 810 b 274 807 369 810 321 808 l 274 949 b 199 954 251 953 222 954 b 126 949 178 954 147 953 z m 413 692 b 583 506 551 692 583 590 b 413 319 583 422 551 319 b 274 318 388 319 326 318 l 274 693 b 413 692 326 692 383 692 z "},"­":{"ha":486,"x_min":0,"x_max":0,"o":"m 415 308 b 422 369 421 328 422 351 b 415 432 422 389 421 413 l 71 432 b 64 369 65 413 64 389 b 71 308 64 351 65 328 z "},"˚":{"ha":553,"x_min":0,"x_max":0,"o":"m 108 906 b 276 749 108 819 178 749 b 444 906 375 749 444 819 b 276 1064 444 993 375 1064 b 108 906 178 1064 108 993 z m 207 906 b 276 982 207 949 236 982 b 346 906 317 982 346 949 b 276 831 346 863 317 831 b 207 906 236 831 207 863 z "},"ˇ":{"ha":553,"x_min":0,"x_max":0,"o":"m 146 1010 b 76 946 122 1001 92 976 l 213 771 b 333 772 246 763 301 760 l 482 958 b 415 1018 465 989 440 1010 l 275 883 z "},"˙":{"ha":553,"x_min":0,"x_max":0,"o":"m 188 876 b 200 815 188 857 192 832 b 276 797 215 804 249 797 b 353 815 301 797 339 804 b 365 876 361 832 365 857 b 353 939 365 896 361 922 b 276 956 338 949 301 956 b 200 939 249 956 217 949 b 188 876 192 922 188 897 z "},"⁄":{"ha":313,"x_min":0,"x_max":0,"o":"m -175 0 b -35 0 -150 -10 -71 -11 l 489 949 b 347 949 463 958 383 960 z "},"⁴":{"ha":583,"x_min":0,"x_max":0,"o":"m 310 472 b 371 467 329 468 353 467 b 428 472 389 467 411 468 l 428 581 l 507 581 b 517 642 514 597 517 622 b 513 683 517 654 515 671 l 428 683 b 429 754 428 701 429 735 l 429 846 l 425 850 l 390 850 b 310 763 342 850 310 817 l 310 717 b 311 683 310 711 310 694 l 286 683 b 188 681 267 683 222 683 l 185 683 b 256 813 210 715 238 774 l 361 1040 b 244 1068 336 1061 282 1072 l 82 717 b 61 653 74 700 61 672 b 89 579 61 632 75 601 l 254 579 b 311 581 274 579 292 581 b 310 531 311 564 310 547 z "},"ȷ":{"ha":386,"x_min":0,"x_max":0,"o":"m 279 567 b 169 690 279 643 239 690 l 151 690 b 50 685 129 690 88 689 b 43 632 46 665 43 649 b 50 581 43 614 46 599 l 78 581 b 138 508 124 581 138 558 l 138 -44 b 38 -217 138 -140 115 -178 b 79 -304 42 -253 60 -286 b 279 25 268 -256 279 -157 z "},"Ą":{"ha":849,"x_min":0,"x_max":0,"o":"m 28 10 l 32 3 b 104 -7 51 -3 78 -7 b 168 -1 126 -7 150 -6 l 242 231 b 322 229 265 231 311 229 l 513 229 b 596 231 524 229 572 231 l 647 68 b 683 4 657 35 668 15 b 583 -172 631 -40 583 -103 b 733 -301 583 -254 647 -301 b 881 -253 790 -301 849 -281 b 847 -183 879 -222 865 -197 b 767 -206 826 -194 796 -206 b 699 -143 728 -206 699 -185 b 821 10 699 -85 750 -35 l 510 949 b 426 954 489 953 450 954 b 342 949 403 954 364 953 z m 360 601 b 414 803 375 653 400 740 l 421 803 b 494 551 440 729 469 632 l 558 350 b 489 351 536 350 499 351 l 350 351 b 279 350 339 351 301 350 z "},"Ć":{"ha":839,"x_min":0,"x_max":0,"o":"m 639 621 b 700 613 663 615 678 613 b 783 696 760 613 783 646 b 449 967 783 836 656 967 b 68 469 244 967 68 815 b 429 -18 68 224 164 -18 b 776 121 572 -18 700 44 b 703 217 767 156 735 196 b 454 111 622 150 540 111 b 224 469 310 111 224 240 b 446 847 224 715 300 847 b 639 621 596 847 642 726 z m 306 1088 b 349 1013 310 1063 326 1026 l 651 1138 b 588 1254 646 1183 615 1235 z "},"Č":{"ha":839,"x_min":0,"x_max":0,"o":"m 639 621 b 700 613 663 615 678 613 b 783 696 760 613 783 646 b 449 967 783 836 656 967 b 68 469 244 967 68 815 b 429 -18 68 224 164 -18 b 776 121 572 -18 700 44 b 703 217 767 156 735 196 b 454 111 622 150 540 111 b 224 469 310 111 224 240 b 446 847 224 715 300 847 b 639 621 596 847 642 726 z m 288 1240 b 224 1178 265 1233 235 1210 l 379 1031 b 507 1032 414 1024 472 1025 l 667 1189 b 603 1251 658 1217 626 1243 l 443 1138 z "},"Ď":{"ha":900,"x_min":0,"x_max":0,"o":"m 829 474 b 682 883 829 635 807 781 b 440 954 622 933 514 954 b 135 950 328 954 256 954 l 126 940 l 126 8 l 135 -1 b 440 -7 256 -4 328 -7 b 682 64 514 -7 622 14 b 829 474 808 167 829 311 z m 676 474 b 440 113 676 310 646 113 b 274 113 382 113 336 114 l 274 836 b 440 835 336 836 382 835 b 676 474 646 835 676 640 z m 271 1239 b 207 1176 249 1232 218 1208 l 363 1029 b 490 1031 397 1022 456 1024 l 650 1188 b 586 1250 642 1215 610 1242 l 426 1136 z "},"Ę":{"ha":792,"x_min":0,"x_max":0,"o":"m 721 125 l 361 125 b 269 121 325 125 297 124 b 271 192 269 147 271 167 l 271 419 b 357 418 303 418 336 418 l 618 418 b 625 479 624 438 625 463 b 618 540 625 496 624 521 l 357 540 b 271 539 336 540 303 539 l 271 733 b 269 824 271 769 269 788 b 357 824 301 822 336 824 l 686 824 b 697 890 694 846 697 874 b 693 949 697 907 697 926 l 135 949 l 125 940 l 125 90 b 210 -1 125 33 157 -1 l 521 -1 b 422 -171 464 -43 422 -104 b 571 -301 422 -254 485 -301 b 718 -253 629 -301 686 -281 b 686 -183 718 -222 703 -197 b 604 -206 664 -194 635 -206 b 538 -143 565 -206 538 -185 b 665 4 538 -90 585 -28 b 668 6 667 4 667 6 b 717 68 694 17 711 38 b 721 125 721 88 721 113 z "},"Ě":{"ha":786,"x_min":0,"x_max":0,"o":"m 721 125 l 361 125 b 269 121 325 125 297 124 b 271 192 269 147 271 167 l 271 419 b 357 418 303 418 336 418 l 618 418 b 625 479 624 438 625 463 b 618 540 625 496 624 521 l 357 540 b 271 539 336 540 303 539 l 271 733 b 269 824 271 769 269 788 b 357 824 301 822 336 824 l 686 824 b 697 890 694 846 697 874 b 693 949 697 907 697 926 l 135 949 l 125 940 l 125 90 b 210 -1 125 33 157 -1 l 622 -1 b 717 68 675 -1 708 21 b 721 125 721 88 721 113 z m 257 1239 b 193 1176 235 1232 204 1208 l 349 1029 b 476 1031 383 1022 442 1024 l 636 1188 b 572 1250 628 1215 596 1242 l 413 1136 z "},"Ħ":{"ha":950,"x_min":0,"x_max":0,"o":"m 281 0 l 281 324 b 279 426 281 363 279 389 b 358 425 293 426 344 425 l 592 425 b 671 426 606 425 657 426 b 669 324 671 389 669 363 l 669 0 b 743 -6 692 -4 721 -6 b 818 0 768 -6 794 -4 l 818 686 l 917 686 b 922 744 921 704 922 721 b 917 801 922 768 921 782 l 818 801 l 818 949 b 743 954 794 953 765 954 b 669 949 719 954 692 953 l 669 801 l 281 801 l 281 949 b 206 954 257 953 229 954 b 132 949 183 954 154 953 l 132 801 l 33 801 b 26 743 29 782 26 765 b 33 686 26 721 29 704 l 132 686 l 132 0 b 206 -6 154 -4 183 -6 b 281 0 229 -6 257 -4 z m 592 551 l 358 551 b 279 550 344 551 293 550 b 281 653 279 588 281 614 l 281 686 l 669 686 l 669 653 b 671 550 669 614 671 588 b 592 551 657 550 606 551 z "},"Ķ":{"ha":828,"x_min":0,"x_max":0,"o":"m 806 39 b 743 139 775 64 761 93 l 668 340 b 500 511 632 435 593 493 b 556 581 521 529 539 553 l 765 936 l 756 949 b 671 953 726 951 696 953 b 582 893 622 953 606 933 l 404 592 b 351 553 389 564 379 553 l 274 550 l 274 949 b 199 954 251 953 222 954 b 126 949 178 954 147 953 l 126 0 b 199 -6 147 -4 178 -6 b 274 0 222 -6 251 -4 l 274 424 b 368 426 317 426 349 426 b 533 285 450 426 494 389 l 608 81 b 706 -8 629 22 647 -8 b 806 39 742 -8 786 8 z m 511 -81 b 371 -99 468 -67 408 -74 b 389 -171 382 -119 389 -147 b 306 -304 389 -225 361 -268 b 353 -365 311 -332 329 -358 b 525 -153 458 -325 525 -247 b 511 -81 525 -128 518 -97 z "},"Ň":{"ha":944,"x_min":0,"x_max":0,"o":"m 810 954 l 761 954 b 682 863 701 954 682 928 l 682 517 b 693 167 682 421 686 278 l 688 165 b 596 367 661 222 631 294 l 303 949 b 214 954 274 953 233 954 b 126 947 196 954 150 951 l 126 0 b 196 -6 150 -4 176 -6 b 264 0 215 -6 239 -4 l 264 433 b 251 774 264 538 257 678 l 257 775 b 344 582 282 717 311 651 l 640 0 b 729 -6 669 -4 711 -6 b 818 1 747 -6 794 -3 l 818 947 z m 318 1239 b 254 1176 296 1232 265 1208 l 410 1029 b 538 1031 444 1022 503 1024 l 697 1188 b 633 1250 689 1215 657 1242 l 474 1136 z "},"Ś":{"ha":772,"x_min":0,"x_max":0,"o":"m 42 86 b 375 -18 135 21 260 -18 b 715 261 604 -18 715 101 b 507 519 715 385 626 469 l 346 589 b 231 714 278 618 231 653 b 397 844 231 788 294 844 b 635 779 468 844 563 815 b 689 894 665 807 688 853 b 394 967 617 931 510 967 b 81 697 208 967 81 849 b 271 457 81 579 154 507 l 435 386 b 561 236 515 351 561 301 b 383 106 560 160 496 106 b 104 200 288 106 185 147 b 42 86 74 175 46 129 z m 258 1086 b 301 1011 263 1061 279 1025 l 604 1136 b 540 1253 599 1182 568 1233 z "},"Š":{"ha":772,"x_min":0,"x_max":0,"o":"m 42 86 b 375 -18 135 21 260 -18 b 715 261 604 -18 715 101 b 507 519 715 385 626 469 l 346 589 b 231 714 278 618 231 653 b 397 844 231 788 294 844 b 635 779 468 844 563 815 b 689 894 665 807 688 853 b 394 967 617 931 510 967 b 81 697 208 967 81 849 b 271 457 81 579 154 507 l 435 386 b 561 236 515 351 561 301 b 383 106 560 160 496 106 b 104 200 288 106 185 147 b 42 86 74 175 46 129 z m 240 1239 b 176 1176 218 1232 188 1208 l 332 1029 b 460 1031 367 1022 425 1024 l 619 1188 b 556 1250 611 1215 579 1242 l 396 1136 z "},"ẞ":{"ha":871,"x_min":0,"x_max":0,"o":"m 146 0 b 218 -6 167 -4 196 -6 b 292 0 242 -6 269 -4 l 292 688 b 449 860 292 792 339 860 b 610 688 557 860 610 781 b 604 639 610 671 607 654 b 468 474 519 606 468 540 b 560 319 468 417 501 371 l 617 271 b 672 176 649 243 672 213 b 560 93 672 128 625 93 b 442 125 525 93 481 104 b 394 22 415 101 396 54 b 571 -18 447 -4 519 -18 b 825 178 722 -18 825 61 b 722 358 825 242 785 303 l 671 404 b 619 483 633 436 619 458 b 733 585 619 518 651 565 l 731 586 l 733 586 b 754 694 747 624 754 663 b 450 971 754 863 635 971 b 146 703 269 971 146 876 l 146 654 l 26 657 b 21 600 22 639 21 618 b 26 542 21 582 22 558 l 146 543 z "},"Ť":{"ha":683,"x_min":0,"x_max":0,"o":"m 268 0 b 343 -6 292 -4 321 -6 b 417 0 365 -6 393 -4 l 417 825 b 497 824 436 825 479 824 l 588 824 b 671 890 644 824 671 842 b 663 949 671 910 667 932 l 24 949 b 18 886 19 926 18 904 b 24 824 18 868 19 846 l 189 824 b 268 825 208 824 250 825 l 269 825 b 268 722 269 786 268 760 z m 183 1239 b 119 1176 161 1232 131 1208 l 275 1029 b 403 1031 310 1022 368 1024 l 563 1188 b 499 1250 554 1215 522 1242 l 339 1136 z "},"Ů":{"ha":929,"x_min":0,"x_max":0,"o":"m 815 949 b 739 954 793 953 761 954 b 667 949 717 954 689 953 l 667 333 b 464 101 667 181 597 101 b 261 333 332 101 261 181 l 261 860 b 179 954 261 925 239 954 l 122 954 l 114 946 l 114 333 b 464 -18 114 103 251 -18 b 815 333 676 -18 815 103 z m 294 1085 b 463 926 294 997 364 926 b 631 1085 561 926 631 997 b 463 1242 631 1171 561 1242 b 294 1085 364 1242 294 1171 z m 393 1085 b 463 1160 393 1128 422 1160 b 532 1085 503 1160 532 1128 b 463 1008 532 1040 503 1008 b 393 1085 422 1008 393 1040 z "},"Ÿ":{"ha":693,"x_min":0,"x_max":0,"o":"m 417 631 b 356 454 401 590 371 510 l 349 454 b 290 628 332 511 310 579 l 181 894 b 101 958 163 939 142 958 b 8 932 72 958 40 950 l 272 307 l 272 0 b 346 -6 293 -4 324 -6 b 421 0 369 -6 397 -4 l 421 304 l 685 935 l 678 944 b 606 956 657 951 632 956 b 543 949 586 956 564 954 z m 499 1169 b 431 1153 468 1169 446 1163 b 417 1097 419 1136 417 1115 b 431 1039 417 1078 419 1056 b 499 1022 446 1028 468 1022 b 565 1039 525 1022 549 1028 b 578 1097 574 1056 578 1078 b 565 1153 578 1115 574 1136 b 499 1169 549 1163 525 1169 z m 204 1169 b 138 1153 176 1169 153 1163 b 125 1097 129 1136 125 1115 b 138 1039 125 1078 129 1056 b 204 1022 153 1028 176 1022 b 272 1039 232 1022 257 1028 b 286 1097 283 1056 286 1078 b 272 1153 286 1115 283 1136 b 204 1169 257 1163 232 1169 z "},"Ź":{"ha":781,"x_min":0,"x_max":0,"o":"m 86 157 b 67 93 72 136 67 114 b 85 0 67 79 68 64 l 613 0 b 715 82 681 0 715 29 b 703 154 715 107 710 133 b 539 128 667 136 613 128 l 394 128 b 228 119 351 128 286 125 l 224 124 b 332 272 260 171 303 228 l 681 794 b 700 853 694 815 700 835 b 679 949 700 867 699 882 l 107 949 b 96 874 100 924 96 900 b 101 824 96 858 97 840 l 325 824 b 542 835 367 824 496 826 l 546 831 b 436 683 507 779 465 726 z m 254 1086 b 297 1011 258 1061 275 1025 l 600 1136 b 536 1253 594 1182 564 1233 z "},"Ż":{"ha":781,"x_min":0,"x_max":0,"o":"m 86 157 b 67 93 72 136 67 114 b 85 0 67 79 68 64 l 613 0 b 715 82 681 0 715 29 b 703 154 715 107 710 133 b 539 128 667 136 613 128 l 394 128 b 228 119 351 128 286 125 l 224 124 b 332 272 260 171 303 228 l 681 794 b 700 853 694 815 700 835 b 679 949 700 867 699 882 l 107 949 b 96 874 100 924 96 900 b 101 824 96 858 97 840 l 325 824 b 542 835 367 824 496 826 l 546 831 b 436 683 507 779 465 726 z m 306 1111 b 318 1049 306 1092 310 1065 b 394 1032 333 1039 367 1032 b 471 1049 419 1032 457 1039 b 483 1111 479 1065 483 1092 b 471 1174 483 1131 479 1157 b 394 1190 456 1183 419 1190 b 318 1174 367 1190 335 1183 b 306 1111 310 1157 306 1132 z "},"Ž":{"ha":781,"x_min":0,"x_max":0,"o":"m 86 157 b 67 93 72 136 67 114 b 85 0 67 79 68 64 l 613 0 b 715 82 681 0 715 29 b 703 154 715 107 710 133 b 539 128 667 136 613 128 l 394 128 b 228 119 351 128 286 125 l 224 124 b 332 272 260 171 303 228 l 681 794 b 700 853 694 815 700 835 b 679 949 700 867 699 882 l 107 949 b 96 874 100 924 96 900 b 101 824 96 858 97 840 l 325 824 b 542 835 367 824 496 826 l 546 831 b 436 683 507 779 465 726 z m 236 1239 b 172 1176 214 1232 183 1208 l 328 1029 b 456 1031 363 1022 421 1024 l 615 1188 b 551 1250 607 1215 575 1242 l 392 1136 z "},"ą":{"ha":746,"x_min":0,"x_max":0,"o":"m 647 -183 b 567 -206 626 -194 597 -206 b 499 -143 528 -206 499 -185 b 583 -15 499 -93 536 -54 b 646 67 615 13 636 38 b 601 183 614 93 601 131 l 601 468 b 374 700 601 626 511 700 b 86 636 281 700 164 671 b 128 532 88 600 104 554 b 346 585 200 560 276 585 b 460 461 418 585 460 549 l 460 407 b 326 417 414 414 364 417 b 60 186 175 417 60 344 b 265 -18 60 88 126 -18 b 476 78 356 -18 426 29 b 513 28 485 58 497 42 b 385 -172 446 -19 385 -90 b 533 -301 385 -254 447 -301 b 681 -253 590 -301 649 -281 b 647 -183 679 -222 665 -197 z m 296 96 b 203 197 236 96 203 140 b 335 317 203 272 251 317 b 460 311 374 317 418 315 l 460 179 b 296 96 410 124 349 96 z "},"ć":{"ha":654,"x_min":0,"x_max":0,"o":""},"č":{"ha":654,"x_min":0,"x_max":0,"o":"m 471 421 b 531 415 490 417 507 415 b 603 494 582 415 603 446 b 351 704 603 590 521 704 b 61 339 206 704 61 596 b 344 -18 61 147 146 -18 b 596 85 444 -18 533 22 b 535 169 589 115 561 154 b 367 100 488 133 431 100 b 210 339 267 100 210 172 b 349 593 210 508 261 593 b 471 421 450 593 474 511 z m 218 1010 b 149 946 194 1001 164 976 l 285 771 b 406 772 318 763 374 760 l 554 958 b 488 1018 538 989 513 1010 l 347 883 z "},"ď":{"ha":829,"x_min":0,"x_max":0,"o":"m 61 335 b 300 -18 61 126 142 -18 b 501 76 383 -18 454 22 b 611 -10 521 32 556 0 b 664 64 633 4 657 38 b 625 196 635 90 625 142 l 625 929 b 549 1021 625 993 608 1021 l 494 1021 l 485 1013 l 485 651 b 328 697 438 678 385 697 b 61 335 194 697 61 582 z m 333 101 b 207 333 267 101 207 168 b 347 583 207 503 269 583 b 485 533 394 583 442 561 l 485 189 b 333 101 442 128 382 101 z m 711 785 b 794 778 729 772 768 768 l 860 1061 b 728 1082 826 1085 767 1089 z "},"ę":{"ha":694,"x_min":0,"x_max":0,"o":"m 617 297 b 626 407 624 336 626 363 b 351 704 626 572 531 704 b 61 342 158 704 61 549 b 347 -18 61 154 128 -18 b 381 -17 358 -18 369 -17 b 300 -169 332 -61 300 -115 b 449 -301 300 -254 363 -301 b 596 -253 507 -301 564 -281 b 564 -183 596 -222 581 -197 b 482 -206 543 -194 513 -206 b 415 -143 443 -206 415 -185 b 513 11 415 -94 449 -37 b 608 60 547 24 581 40 b 563 151 603 89 586 129 b 369 99 504 121 439 99 b 208 297 251 99 214 182 z m 350 597 b 489 419 450 597 489 517 l 489 401 l 208 401 b 350 597 215 524 261 597 z "},"ě":{"ha":694,"x_min":0,"x_max":0,"o":""},"ň":{"ha":758,"x_min":0,"x_max":0,"o":"m 656 471 b 471 699 656 599 601 699 b 250 606 388 699 310 660 b 171 692 247 660 225 692 l 117 692 l 108 683 l 108 0 b 181 -6 129 -4 154 -6 b 251 0 206 -6 232 -4 l 251 482 b 426 568 300 536 371 568 b 513 435 493 568 513 528 l 513 82 b 589 -10 513 22 532 -10 b 679 21 624 -10 658 4 b 656 147 661 54 656 99 z m 256 1010 b 186 946 232 1001 201 976 l 322 771 b 443 772 356 763 411 760 l 592 958 b 525 1018 575 989 550 1010 l 385 883 z "},"ŕ":{"ha":511,"x_min":0,"x_max":0,"o":""},"ś":{"ha":608,"x_min":0,"x_max":0,"o":"m 43 51 b 293 -18 103 15 192 -18 b 558 189 449 -18 558 60 b 382 397 558 296 485 358 l 299 429 b 213 514 240 451 213 474 b 313 594 213 561 251 594 b 497 549 381 594 450 571 b 540 654 524 571 540 618 b 313 704 482 681 388 704 b 68 499 174 704 68 626 b 244 300 68 393 147 336 l 322 271 b 410 176 379 250 410 215 b 285 90 408 125 361 90 b 90 151 221 90 149 119 b 43 51 65 129 44 83 z m 201 806 b 265 747 213 779 239 754 l 503 932 b 401 1026 488 972 443 1013 z "},"š":{"ha":608,"x_min":0,"x_max":0,"o":"m 43 51 b 293 -18 103 15 192 -18 b 558 189 449 -18 558 60 b 382 397 558 296 485 358 l 299 429 b 213 514 240 451 213 474 b 313 594 213 561 251 594 b 497 549 381 594 450 571 b 540 654 524 571 540 618 b 313 704 482 681 388 704 b 68 499 174 704 68 626 b 244 300 68 393 147 336 l 322 271 b 410 176 379 250 410 215 b 285 90 408 125 361 90 b 90 151 221 90 149 119 b 43 51 65 129 44 83 z m 175 1010 b 106 946 151 1001 121 976 l 242 771 b 363 772 275 763 331 760 l 511 958 b 444 1018 494 989 469 1010 l 304 883 z "},"ť":{"ha":507,"x_min":0,"x_max":0,"o":"m 446 688 l 275 683 l 275 889 l 265 899 l 211 899 b 135 807 151 899 135 871 l 135 685 l 32 688 b 26 635 28 668 26 653 b 32 581 26 615 28 599 l 135 582 l 135 138 b 281 -6 135 42 186 -6 b 436 4 336 -6 390 -1 b 439 35 439 14 439 25 b 428 107 439 60 435 88 l 332 107 b 275 168 290 107 275 131 l 275 583 l 446 581 b 453 635 451 599 453 615 b 446 688 453 653 451 668 z m 361 785 b 444 778 379 772 418 768 l 510 1061 b 378 1082 476 1085 417 1089 z "},"ů":{"ha":760,"x_min":0,"x_max":0,"o":""},"ź":{"ha":619,"x_min":0,"x_max":0,"o":""},"ż":{"ha":619,"x_min":0,"x_max":0,"o":"m 71 135 b 49 79 54 113 49 94 b 68 0 49 60 54 42 l 482 0 b 572 68 551 0 572 26 b 558 131 572 89 568 108 b 410 111 525 115 472 111 l 343 111 b 215 106 310 111 260 110 l 211 111 b 318 246 244 151 288 203 l 544 553 b 563 601 556 569 563 586 b 542 686 563 621 556 644 l 76 686 b 68 621 71 664 68 639 b 74 575 68 608 69 589 l 219 575 b 403 583 276 575 364 578 l 407 578 b 297 443 374 536 329 486 z m 222 876 b 235 815 222 857 226 832 b 311 797 250 804 283 797 b 388 815 336 797 374 804 b 400 876 396 832 400 857 b 388 939 400 896 396 922 b 311 956 372 949 336 956 b 235 939 283 956 251 949 b 222 876 226 922 222 897 z "},"ž":{"ha":619,"x_min":0,"x_max":0,"o":""}}}
